<?xml version="1.0" encoding="UTF-8"?>
<svg fill="none" viewBox="0 0 1084 1084" xmlns="http://www.w3.org/2000/svg">
<mask id="b" x="0" y="0" width="1084" height="1084" style="mask-type:alpha" maskUnits="userSpaceOnUse">
<circle cx="542" cy="542" r="542" fill="#C4C4C4"/>
</mask>
<g mask="url(#b)">
<circle cx="542" cy="542" r="542" fill="#ECECEC"/>
<mask id="a" x="-489" y="-423" width="1505" height="1599" style="mask-type:alpha" maskUnits="userSpaceOnUse">
<rect transform="rotate(40.25 483.57 -422.4)" x="483.57" y="-422.4" width="696.38" height="1503.7" fill="#C4C4C4"/>
</mask>
<g mask="url(#a)">
<path d="m-348.7 122.41 1271.8-434.63 226.38 662.42-1271.8 434.63-226.38-662.42z" fill="#2F2F2F"/>
</g>
<circle cx="541.44" cy="541.44" r="264.79" fill="#ECECEC"/>
<ellipse cx="541.44" cy="541.44" rx="215.11" ry="215.11" fill="#2F2F2F"/>
<rect x="371.5" y="575.88" width="452.8" height="361.33" fill="#ECECEC"/>
<path d="m623.33 348c-21.267-7.085-43.288-6.54-61.01-6.54s-38.398-3.542-61.437 0c-23.038 3.542-42.533 12.398-59.664 18.892-17.132 6.494-38.398 23.615-54.348 37.193s-33.672 35.422-40.761 58.446c-7.089 23.025-9.452 87.375-9.452 87.375l24.22 76.157-14.768 36.603-51.395 81.47 66.163 30.109 32.491-45.458 42.533-66.121h30.719l46.077-10.037 24.221 40.736 5.907 44.868-30.128 42.506 52.576 36.603 45.487 58.446 69.116 56.675h72.071l65.572-43.096-28.356-33.651v-33.651l-20.676-29.519-16.54-48.41 16.54-15.349v-126.34c0-36.602 0-69.073-8.861-99.772s-39.579-70.844-39.579-70.844-19.495-27.747-34.263-41.325c-14.769-13.579-41.189-28.883-62.455-35.967z" fill="#2F2F2F"/>
<path d="m726.05 623.92-100.91-16.421-16.523 33.429 117.43 42.225v-59.233z" fill="#ECECEC"/>
</g>
</svg>
