<?xml version="1.0" encoding="UTF-8"?>
<svg fill="none" viewBox="0 0 72 64" xmlns="http://www.w3.org/2000/svg">
<path d="m37.479 25.813c0.3706-0.0275 1.7017-0.0209 3.0616 0.0018 1.368 0.0229 2.8128 0.0631 3.4258 0.107 2.6281 0.1784 4.971 0.4493 6.9682 0.814l0.0015 3e-4c0.432 0.0805 0.8692 0.1598 0.9686 0.1761l0.0038 7e-4c0.0717 0.0124 0.1467 0.0322 0.2126 0.0584 0.0306 0.0122 0.0768 0.0327 0.123 0.0646 0.0226 0.0155 0.0608 0.0444 0.0972 0.0892 0.034 0.0417 0.0971 0.1353 0.0971 0.271 0 0.1138-0.0457 0.195-0.0692 0.2308-0.0259 0.0395-0.0531 0.0666-0.0685 0.0809-0.0311 0.0288-0.061 0.0483-0.076 0.0576-0.0331 0.0209-0.0691 0.0389-0.098 0.0527-0.0615 0.0294-0.1434 0.064-0.2372 0.1015-0.1899 0.0761-0.4557 0.1752-0.7672 0.2868-0.6243 0.2239-1.4459 0.5033-2.2408 0.7596l-0.0013 4e-4 -1.3845 0.4414-0.0918 0.0292-0.0953-0.0142-1.0006-0.149h-1e-4c-9.1713-1.3693-19.859-1.0354-27.283 0.8459h1e-4l-0.0027 7e-4c-0.1529 0.0376-0.2968 0.0717-0.4048 0.0951-0.053 0.0114-0.1028 0.0216-0.1424 0.0282-0.018 3e-3 -0.0444 0.0071-0.0716 0.0091-0.011 8e-4 -0.0403 0.0029-0.0757-1e-4 -0.0162-0.0014-0.0548-0.0053-0.1011-0.021-0.0281-0.0096-0.1386-0.0489-0.2152-0.1667-0.0334-0.0507-0.0593-0.1139-0.0666-0.1885-0.0109-0.112 0.0253-0.1987 0.0523-0.2466 0.0463-0.0819 0.109-0.127 0.1236-0.1375l9e-4 -6e-4c0.0415-0.0299 0.0835-0.0491 0.1008-0.057 0.0453-0.0205 0.1027-0.0418 0.1613-0.0623 0.1218-0.0426 0.2968-0.0978 0.5084-0.1617 0.4251-0.1282 1.0182-0.2969 1.6762-0.4778 1.3156-0.3618 2.904-0.7762 3.9503-1.0188h2e-4c4.1819-0.9669 8.2362-1.6016 11.684-1.8212h3e-4c0.2129-0.0134 0.4286-0.0267 0.6222-0.0386 0.3072-0.019 0.5584-0.0345 0.6533-0.0414zm0 0h-5e-4l0.0309 0.4137-0.0302-0.4137h-2e-4z" fill="#407BFF" stroke="#263238" stroke-width=".82963"/>
<mask id="a" x="-1" y="9" width="73" height="55" fill="black" maskUnits="userSpaceOnUse">
<rect x="-1" y="9" width="73" height="55" fill="#fff"/>
<path d="m47.616 11.015c-0.0962 0.0105-0.7262 0.049-1.4 0.0856-1.8293 0.099-3.133 0.2121-5.1042 0.4424-1.3419 0.1569-1.7175 0.204-2.275 0.2856-0.3047 0.0444-0.7641 0.1107-1.0208 0.1471-12.599 1.7859-23.905 5.6177-30.268 10.257-4.7374 3.4549-7.3138 7.5789-6.3466 10.16 1.4166 3.7811 6.695 6.6927 13.631 7.5191 0.2887 0.0345 0.7539 0.0899 1.0339 0.1235 2.4776 0.2963 7.2938 0.2965 10.574 4e-4 1.6786-0.1516 2.5767-0.2396 2.7125-0.2657 0.0801-0.0155 0.382-0.0532 0.6707-0.0836 0.6955-0.0737 1.4296-0.1652 1.896-0.2366 0.2084-0.0319 0.7334-0.1115 1.1665-0.1769 1.1144-0.1684 2.4917-0.3947 3.2085-0.5275 2.71-0.5015 3.8733-0.7404 6.4165-1.3169 18.94-4.2934 29.01-11.214 27.657-19.007-0.53-3.0539-5.3847-5.8105-12.11-6.877-1.229-0.1948-1.8802-0.2702-3.8792-0.4489-0.6617-0.0591-6.1457-0.1265-6.5625-0.0805l-2e-4 -3e-4zm7.9919 4.5736c3.7431 0.3736 6.0816 0.9791 7.5492 1.9548 0.8475 0.5633 1.11 0.998 1.1119 1.841 0.0058 2.4675-2.5228 4.8069-7.7861 7.2037-0.8802 0.4009-2.709 1.1084-4.1417 1.6026-0.385 0.1328-0.7656 0.2657-0.8458 0.2956-0.6232 0.231-3.5674 1.1023-5.2209 1.5447-2.0913 0.5597-5.6396 1.3939-7.5686 1.7794-0.3127 0.0625-0.6802 0.1395-0.8167 0.171-0.1364 0.0315-0.9436 0.19-1.7938 0.3523-0.8503 0.162-1.7428 0.3328-1.9834 0.3794-0.6596 0.1275-3.3168 0.5545-4.6958 0.7547-1.0628 0.1542-2.6663 0.3583-3.4417 0.4377-3.3333 0.342-4.1153 0.3827-7.3208 0.3827-3.3355 0-4.0845-0.0493-6.2183-0.4102-4.2388-0.7166-6.9667-2.6656-6.2681-4.4782 1.214-3.1504 8.1887-6.971 17.418-9.5414 2.5412-0.7077 3.2491-0.8818 7.1437-1.7575 2.9914-0.6727 8.5519-1.6165 11.696-1.985 0.2567-0.0301 0.6636-0.0803 0.9042-0.1117 1.3393-0.1739 4.1764-0.3998 6.2125-0.4947 0.8816-0.0409 5.4612 0.0187 6.0667 0.0791zm-18.336 10.273c-0.8808 0.0394-1.222 0.0669-2.9269 0.2343-1.19 0.1169-3.2754 0.4045-4.4625 0.6153-0.8988 0.1598-1.113 0.1994-1.6917 0.3131-2.1766 0.4277-4.3141 0.9224-6.0667 1.4044-0.2566 0.0705-0.6435 0.176-0.8594 0.2345-0.7769 0.2102-2.3195 0.6741-3.6581 1.1-0.3612 0.115-0.4828 0.2592-0.1683 0.1995 0.1067-0.0203 0.2341-0.0572 0.283-0.0819 0.0486-0.0248 0.3505-0.1158 0.6707-0.2023 2.4656-0.6658 4.9853-1.1277 7.9321-1.4542 4.656-0.5156 11.298-0.5786 15.633-0.1481 2.1536 0.2139 3.1052 0.3259 4.2 0.4944 1.3927 0.2146 1.371 0.2132 1.7163 0.1145 1.4595-0.4167 4.4962-1.501 4.4962-1.6055 0-0.067-0.1342-0.1011-1.0314-0.2632-4.4889-0.8102-9.583-1.156-14.067-0.9548zm24.199 6.258c-1.2712 0.6293-2.986 1.379-4.553 1.9906-0.518 0.2023-0.5663 0.2352-0.6917 0.4715-0.8206 1.5468-3.6173 3.2349-7.6762 4.6331-1.6562 0.5705-4.6575 1.4138-6.0375 1.6965-0.1444 0.0295-0.4463 0.0943-0.6708 0.1438-0.5931 0.1309-2.9059 0.5901-3.3833 0.6717-0.2247 0.0385-0.6053 0.1055-0.8459 0.1489-0.5208 0.0941-1.9172 0.3083-2.45 0.3759-0.2085 0.0266-0.786 0.1011-1.2833 0.1661-1.6963 0.2212-2.3331 0.2859-5.0458 0.5138-1.687 0.1417-6.3985 0.1408-7.875-0.0014-1.3582-0.1309-2.5273-0.2603-3.0042-0.3324-0.2086-0.0315-0.563-0.0845-0.7875-0.1177-2.8768-0.4267-6.0088-1.2245-8.7049-2.2178-0.6286-0.2317-0.4942 0.0574 0.4774 1.0271 2.4597 2.4543 6.8782 4.1986 12.69 5.009 5.722 0.798 12.768 0.7124 18.755-0.228 1.4429-0.2267 1.7978-0.2897 3.1416-0.5578 13.325-2.6584 21.69-8.6007 18.858-13.397-0.2173-0.3682-0.1582-0.3685-0.9117 0.0044h-9e-4zm-13.346 13.51c-3.948 3.5968-12.91 5.2768-22.12 4.1465-4.2467-0.5212-8.5939-1.9086-11.051-3.5268-0.774-0.5096-0.7877-0.5084-0.4527 0.0429 2.727 4.4887 9.5889 7.151 18.445 7.1564 3.8206 0.0025 7.1115-0.3412 9.5958-1.002 4.6551-1.2382 6.9525-3.7809 6.116-6.7689-0.1132-0.4044-0.1401-0.4068-0.5339-0.0481h7e-4zm-29.819 6.3772c0.0078 1.6392 2.9545 4.5076 5.9493 5.7913 3.5694 1.53 8.6381 1.524 11.776-0.0137 1.1425-0.56 1.9983-1.3071 2.4232-2.1157 0.2632-0.5007 0.2639-0.4977-0.0681-0.3301-1.3361 0.6748-6.6881 1.0525-9.377 0.6613-1.4124-0.2052-2.3025-0.3769-3.4125-0.6581-2.2048-0.5585-4.9058-1.799-6.6621-3.0597-0.6379-0.458-0.6298-0.4545-0.6289-0.2753zm1.8824 5.8625c0.084 1.5953 1.0717 2.9118 2.9586 3.9434 2.055 1.1237 4.5171 0.9505 6.6645-0.4691 0.5292-0.3499 0.5485-0.3416-0.7507-0.318-3.5251 0.0644-6.5624-1.1349-8.4105-3.3206-0.4972-0.5882-0.5014-0.5866-0.4619 0.1643z" clip-rule="evenodd" fill-rule="evenodd"/>
</mask>
<path d="m47.616 11.015c-0.0962 0.0105-0.7262 0.049-1.4 0.0856-1.8293 0.099-3.133 0.2121-5.1042 0.4424-1.3419 0.1569-1.7175 0.204-2.275 0.2856-0.3047 0.0444-0.7641 0.1107-1.0208 0.1471-12.599 1.7859-23.905 5.6177-30.268 10.257-4.7374 3.4549-7.3138 7.5789-6.3466 10.16 1.4166 3.7811 6.695 6.6927 13.631 7.5191 0.2887 0.0345 0.7539 0.0899 1.0339 0.1235 2.4776 0.2963 7.2938 0.2965 10.574 4e-4 1.6786-0.1516 2.5767-0.2396 2.7125-0.2657 0.0801-0.0155 0.382-0.0532 0.6707-0.0836 0.6955-0.0737 1.4296-0.1652 1.896-0.2366 0.2084-0.0319 0.7334-0.1115 1.1665-0.1769 1.1144-0.1684 2.4917-0.3947 3.2085-0.5275 2.71-0.5015 3.8733-0.7404 6.4165-1.3169 18.94-4.2934 29.01-11.214 27.657-19.007-0.53-3.0539-5.3847-5.8105-12.11-6.877-1.229-0.1948-1.8802-0.2702-3.8792-0.4489-0.6617-0.0591-6.1457-0.1265-6.5625-0.0805l-2e-4 -3e-4zm7.9919 4.5736c3.7431 0.3736 6.0816 0.9791 7.5492 1.9548 0.8475 0.5633 1.11 0.998 1.1119 1.841 0.0058 2.4675-2.5228 4.8069-7.7861 7.2037-0.8802 0.4009-2.709 1.1084-4.1417 1.6026-0.385 0.1328-0.7656 0.2657-0.8458 0.2956-0.6232 0.231-3.5674 1.1023-5.2209 1.5447-2.0913 0.5597-5.6396 1.3939-7.5686 1.7794-0.3127 0.0625-0.6802 0.1395-0.8167 0.171-0.1364 0.0315-0.9436 0.19-1.7938 0.3523-0.8503 0.162-1.7428 0.3328-1.9834 0.3794-0.6596 0.1275-3.3168 0.5545-4.6958 0.7547-1.0628 0.1542-2.6663 0.3583-3.4417 0.4377-3.3333 0.342-4.1153 0.3827-7.3208 0.3827-3.3355 0-4.0845-0.0493-6.2183-0.4102-4.2388-0.7166-6.9667-2.6656-6.2681-4.4782 1.214-3.1504 8.1887-6.971 17.418-9.5414 2.5412-0.7077 3.2491-0.8818 7.1437-1.7575 2.9914-0.6727 8.5519-1.6165 11.696-1.985 0.2567-0.0301 0.6636-0.0803 0.9042-0.1117 1.3393-0.1739 4.1764-0.3998 6.2125-0.4947 0.8816-0.0409 5.4612 0.0187 6.0667 0.0791zm-18.336 10.273c-0.8808 0.0394-1.222 0.0669-2.9269 0.2343-1.19 0.1169-3.2754 0.4045-4.4625 0.6153-0.8988 0.1598-1.113 0.1994-1.6917 0.3131-2.1766 0.4277-4.3141 0.9224-6.0667 1.4044-0.2566 0.0705-0.6435 0.176-0.8594 0.2345-0.7769 0.2102-2.3195 0.6741-3.6581 1.1-0.3612 0.115-0.4828 0.2592-0.1683 0.1995 0.1067-0.0203 0.2341-0.0572 0.283-0.0819 0.0486-0.0248 0.3505-0.1158 0.6707-0.2023 2.4656-0.6658 4.9853-1.1277 7.9321-1.4542 4.656-0.5156 11.298-0.5786 15.633-0.1481 2.1536 0.2139 3.1052 0.3259 4.2 0.4944 1.3927 0.2146 1.371 0.2132 1.7163 0.1145 1.4595-0.4167 4.4962-1.501 4.4962-1.6055 0-0.067-0.1342-0.1011-1.0314-0.2632-4.4889-0.8102-9.583-1.156-14.067-0.9548zm24.199 6.258c-1.2712 0.6293-2.986 1.379-4.553 1.9906-0.518 0.2023-0.5663 0.2352-0.6917 0.4715-0.8206 1.5468-3.6173 3.2349-7.6762 4.6331-1.6562 0.5705-4.6575 1.4138-6.0375 1.6965-0.1444 0.0295-0.4463 0.0943-0.6708 0.1438-0.5931 0.1309-2.9059 0.5901-3.3833 0.6717-0.2247 0.0385-0.6053 0.1055-0.8459 0.1489-0.5208 0.0941-1.9172 0.3083-2.45 0.3759-0.2085 0.0266-0.786 0.1011-1.2833 0.1661-1.6963 0.2212-2.3331 0.2859-5.0458 0.5138-1.687 0.1417-6.3985 0.1408-7.875-0.0014-1.3582-0.1309-2.5273-0.2603-3.0042-0.3324-0.2086-0.0315-0.563-0.0845-0.7875-0.1177-2.8768-0.4267-6.0088-1.2245-8.7049-2.2178-0.6286-0.2317-0.4942 0.0574 0.4774 1.0271 2.4597 2.4543 6.8782 4.1986 12.69 5.009 5.722 0.798 12.768 0.7124 18.755-0.228 1.4429-0.2267 1.7978-0.2897 3.1416-0.5578 13.325-2.6584 21.69-8.6007 18.858-13.397-0.2173-0.3682-0.1582-0.3685-0.9117 0.0044h-9e-4zm-13.346 13.51c-3.948 3.5968-12.91 5.2768-22.12 4.1465-4.2467-0.5212-8.5939-1.9086-11.051-3.5268-0.774-0.5096-0.7877-0.5084-0.4527 0.0429 2.727 4.4887 9.5889 7.151 18.445 7.1564 3.8206 0.0025 7.1115-0.3412 9.5958-1.002 4.6551-1.2382 6.9525-3.7809 6.116-6.7689-0.1132-0.4044-0.1401-0.4068-0.5339-0.0481h7e-4zm-29.819 6.3772c0.0078 1.6392 2.9545 4.5076 5.9493 5.7913 3.5694 1.53 8.6381 1.524 11.776-0.0137 1.1425-0.56 1.9983-1.3071 2.4232-2.1157 0.2632-0.5007 0.2639-0.4977-0.0681-0.3301-1.3361 0.6748-6.6881 1.0525-9.377 0.6613-1.4124-0.2052-2.3025-0.3769-3.4125-0.6581-2.2048-0.5585-4.9058-1.799-6.6621-3.0597-0.6379-0.458-0.6298-0.4545-0.6289-0.2753zm1.8824 5.8625c0.084 1.5953 1.0717 2.9118 2.9586 3.9434 2.055 1.1237 4.5171 0.9505 6.6645-0.4691 0.5292-0.3499 0.5485-0.3416-0.7507-0.318-3.5251 0.0644-6.5624-1.1349-8.4105-3.3206-0.4972-0.5882-0.5014-0.5866-0.4619 0.1643z" clip-rule="evenodd" fill="#407BFF" fill-rule="evenodd"/>
<path d="m47.616 11.015c-0.0962 0.0105-0.7262 0.049-1.4 0.0856-1.8293 0.099-3.133 0.2121-5.1042 0.4424-1.3419 0.1569-1.7175 0.204-2.275 0.2856-0.3047 0.0444-0.7641 0.1107-1.0208 0.1471-12.599 1.7859-23.905 5.6177-30.268 10.257-4.7374 3.4549-7.3138 7.5789-6.3466 10.16 1.4166 3.7811 6.695 6.6927 13.631 7.5191 0.2887 0.0345 0.7539 0.0899 1.0339 0.1235 2.4776 0.2963 7.2938 0.2965 10.574 4e-4 1.6786-0.1516 2.5767-0.2396 2.7125-0.2657 0.0801-0.0155 0.382-0.0532 0.6707-0.0836 0.6955-0.0737 1.4296-0.1652 1.896-0.2366 0.2084-0.0319 0.7334-0.1115 1.1665-0.1769 1.1144-0.1684 2.4917-0.3947 3.2085-0.5275 2.71-0.5015 3.8733-0.7404 6.4165-1.3169 18.94-4.2934 29.01-11.214 27.657-19.007-0.53-3.0539-5.3847-5.8105-12.11-6.877-1.229-0.1948-1.8802-0.2702-3.8792-0.4489-0.6617-0.0591-6.1457-0.1265-6.5625-0.0805l-2e-4 -3e-4zm7.9919 4.5736c3.7431 0.3736 6.0816 0.9791 7.5492 1.9548 0.8475 0.5633 1.11 0.998 1.1119 1.841 0.0058 2.4675-2.5228 4.8069-7.7861 7.2037-0.8802 0.4009-2.709 1.1084-4.1417 1.6026-0.385 0.1328-0.7656 0.2657-0.8458 0.2956-0.6232 0.231-3.5674 1.1023-5.2209 1.5447-2.0913 0.5597-5.6396 1.3939-7.5686 1.7794-0.3127 0.0625-0.6802 0.1395-0.8167 0.171-0.1364 0.0315-0.9436 0.19-1.7938 0.3523-0.8503 0.162-1.7428 0.3328-1.9834 0.3794-0.6596 0.1275-3.3168 0.5545-4.6958 0.7547-1.0628 0.1542-2.6663 0.3583-3.4417 0.4377-3.3333 0.342-4.1153 0.3827-7.3208 0.3827-3.3355 0-4.0845-0.0493-6.2183-0.4102-4.2388-0.7166-6.9667-2.6656-6.2681-4.4782 1.214-3.1504 8.1887-6.971 17.418-9.5414 2.5412-0.7077 3.2491-0.8818 7.1437-1.7575 2.9914-0.6727 8.5519-1.6165 11.696-1.985 0.2567-0.0301 0.6636-0.0803 0.9042-0.1117 1.3393-0.1739 4.1764-0.3998 6.2125-0.4947 0.8816-0.0409 5.4612 0.0187 6.0667 0.0791zm-18.336 10.273c-0.8808 0.0394-1.222 0.0669-2.9269 0.2343-1.19 0.1169-3.2754 0.4045-4.4625 0.6153-0.8988 0.1598-1.113 0.1994-1.6917 0.3131-2.1766 0.4277-4.3141 0.9224-6.0667 1.4044-0.2566 0.0705-0.6435 0.176-0.8594 0.2345-0.7769 0.2102-2.3195 0.6741-3.6581 1.1-0.3612 0.115-0.4828 0.2592-0.1683 0.1995 0.1067-0.0203 0.2341-0.0572 0.283-0.0819 0.0486-0.0248 0.3505-0.1158 0.6707-0.2023 2.4656-0.6658 4.9853-1.1277 7.9321-1.4542 4.656-0.5156 11.298-0.5786 15.633-0.1481 2.1536 0.2139 3.1052 0.3259 4.2 0.4944 1.3927 0.2146 1.371 0.2132 1.7163 0.1145 1.4595-0.4167 4.4962-1.501 4.4962-1.6055 0-0.067-0.1342-0.1011-1.0314-0.2632-4.4889-0.8102-9.583-1.156-14.067-0.9548zm24.199 6.258c-1.2712 0.6293-2.986 1.379-4.553 1.9906-0.518 0.2023-0.5663 0.2352-0.6917 0.4715-0.8206 1.5468-3.6173 3.2349-7.6762 4.6331-1.6562 0.5705-4.6575 1.4138-6.0375 1.6965-0.1444 0.0295-0.4463 0.0943-0.6708 0.1438-0.5931 0.1309-2.9059 0.5901-3.3833 0.6717-0.2247 0.0385-0.6053 0.1055-0.8459 0.1489-0.5208 0.0941-1.9172 0.3083-2.45 0.3759-0.2085 0.0266-0.786 0.1011-1.2833 0.1661-1.6963 0.2212-2.3331 0.2859-5.0458 0.5138-1.687 0.1417-6.3985 0.1408-7.875-0.0014-1.3582-0.1309-2.5273-0.2603-3.0042-0.3324-0.2086-0.0315-0.563-0.0845-0.7875-0.1177-2.8768-0.4267-6.0088-1.2245-8.7049-2.2178-0.6286-0.2317-0.4942 0.0574 0.4774 1.0271 2.4597 2.4543 6.8782 4.1986 12.69 5.009 5.722 0.798 12.768 0.7124 18.755-0.228 1.4429-0.2267 1.7978-0.2897 3.1416-0.5578 13.325-2.6584 21.69-8.6007 18.858-13.397-0.2173-0.3682-0.1582-0.3685-0.9117 0.0044h-9e-4zm-13.346 13.51c-3.948 3.5968-12.91 5.2768-22.12 4.1465-4.2467-0.5212-8.5939-1.9086-11.051-3.5268-0.774-0.5096-0.7877-0.5084-0.4527 0.0429 2.727 4.4887 9.5889 7.151 18.445 7.1564 3.8206 0.0025 7.1115-0.3412 9.5958-1.002 4.6551-1.2382 6.9525-3.7809 6.116-6.7689-0.1132-0.4044-0.1401-0.4068-0.5339-0.0481h7e-4zm-29.819 6.3772c0.0078 1.6392 2.9545 4.5076 5.9493 5.7913 3.5694 1.53 8.6381 1.524 11.776-0.0137 1.1425-0.56 1.9983-1.3071 2.4232-2.1157 0.2632-0.5007 0.2639-0.4977-0.0681-0.3301-1.3361 0.6748-6.6881 1.0525-9.377 0.6613-1.4124-0.2052-2.3025-0.3769-3.4125-0.6581-2.2048-0.5585-4.9058-1.799-6.6621-3.0597-0.6379-0.458-0.6298-0.4545-0.6289-0.2753zm1.8824 5.8625c0.084 1.5953 1.0717 2.9118 2.9586 3.9434 2.055 1.1237 4.5171 0.9505 6.6645-0.4691 0.5292-0.3499 0.5485-0.3416-0.7507-0.318-3.5251 0.0644-6.5624-1.1349-8.4105-3.3206-0.4972-0.5882-0.5014-0.5866-0.4619 0.1643z" clip-rule="evenodd" fill-rule="evenodd" mask="url(#a)" stroke="#263238" stroke-width="2"/>
<path d="m51.558 32.62c3.7703-2.1767 5.062-6.9977 2.8853-10.768s-6.9977-5.062-10.768-2.8852c-3.7702 2.1767-5.062 6.9977-2.8853 10.768 2.1768 3.7702 6.9977 5.062 10.768 2.8852z" fill="#fff" stroke="#263238" stroke-linejoin="round" stroke-width=".5926"/>
<path d="m46.508 33.434c4.3518 0.1177 7.9752-3.3147 8.093-7.6666 0.1177-4.3519-3.3147-7.9752-7.6666-8.093s-7.9752 3.3147-8.093 7.6666c-0.1178 4.3518 3.3147 7.9752 7.6666 8.093z" fill="#fff" stroke="#263238" stroke-linejoin="round" stroke-width=".5926"/>
<path d="m46.551 31.89c3.4988 0.0953 6.4125-2.6638 6.5078-6.1627 0.0952-3.4989-2.6639-6.4125-6.1628-6.5078-3.4988-0.0953-6.4125 2.6639-6.5077 6.1627-0.0953 3.4989 2.6638 6.4125 6.1627 6.5078z" fill="#fff" stroke="#263238" stroke-linejoin="round" stroke-width=".5926"/>
<path d="m41.127 24.055c0.4232-1.5778 1.4394-2.9312 2.8365-3.7779 1.397-0.8467 3.067-1.1212 4.6616-0.7663-0.0879-0.0235-0.1831-0.049-0.2637-0.0706-1.6235-0.435-3.3534-0.2073-4.8091 0.6331-1.4556 0.8404-2.5178 2.2247-2.9528 3.8482-0.4351 1.6236-0.2073 3.3535 0.6331 4.8091 0.8404 1.4557 2.2247 2.5179 3.8482 2.9529 0.0879 0.0235 0.1832 0.0491 0.2637 0.0706-1.5611-0.4902-2.8721-1.5656-3.6582-3.0007-0.7862-1.4351-0.9866-3.1188-0.5593-4.6984z" fill="#fff" stroke="#263238" stroke-linejoin="round" stroke-width=".5926"/>
<path d="m53.97 21.202-0.5823-0.156" stroke="#263238" stroke-linejoin="round" stroke-width=".5926"/>
<path d="m54.525 22.089-0.423-0.1134" stroke="#263238" stroke-linejoin="round" stroke-width=".5926"/>
<path d="m55.194 23.401-0.4761-0.1276" stroke="#263238" stroke-linejoin="round" stroke-width=".5926"/>
<path d="m55.368 24.865-0.6336-0.1698" stroke="#263238" stroke-linejoin="round" stroke-width=".5926"/>
<path d="m55.461 26.42-0.5804-0.1556" stroke="#263238" stroke-linejoin="round" stroke-width=".5926"/>
<path d="m54.654 29.432-0.6336-0.1698" stroke="#263238" stroke-linejoin="round" stroke-width=".5926"/>
<path d="m51.205 32.363 0.5292 0.1418" stroke="#263238" stroke-linejoin="round" stroke-width=".5926"/>
<path d="m50.122 32.809 0.5823 0.1561" stroke="#263238" stroke-linejoin="round" stroke-width=".5926"/>
<path d="m48.974 33.294 0.5805 0.1555" stroke="#263238" stroke-linejoin="round" stroke-width=".5926"/>
<path d="m53.163 20.193-0.8991-0.2409" stroke="#263238" stroke-linejoin="round" stroke-width=".5926"/>
<path d="m46.968 23.385c0.1472-0.5493 0.4223-0.6974 0.8051-0.5948 0.3827 0.1025 0.5483 0.3707 0.4016 0.9182l-0.0854 0.3186 1.1409 0.3057 0.0647-0.2417c0.2792-1.042 0.0182-1.8185-0.7917-2.2239l0.1526-0.5695-0.987-0.2645-0.1526 0.5695c-0.8951-0.0435-1.5085 0.5026-1.7848 1.5335-0.5887 2.1975 1.7515 2.905 1.3301 4.478-0.1472 0.5494-0.442 0.6824-0.8265 0.5793-0.3846-0.103-0.5714-0.3651-0.4242-0.9144l0.1619-0.6043-1.1335-0.3037-0.1413 0.5274c-0.2797 1.0437-0.0212 1.8294 0.7997 2.2377l-0.1501 0.5604 0.987 0.2645 0.1501-0.5604c0.9061 0.0465 1.5319-0.4943 1.8115-1.5381 0.5864-2.1883-1.7516-2.8971-1.3281-4.4775z" fill="#263238"/>
<path d="m25.966 12.789c0-6.1739-5.0049-11.179-11.179-11.179-6.1738 0-11.179 5.0049-11.179 11.179 0 6.1738 5.0049 11.179 11.179 11.179 6.1739 0 11.179-5.0049 11.179-11.179z" fill="#fff" stroke="#263238" stroke-linejoin="round" stroke-width=".65186"/>
<path d="m24.168 16.241c1.5513-5.7897-1.8845-11.741-7.6741-13.292-5.7897-1.5513-11.741 1.8845-13.292 7.6741-1.5513 5.7896 1.8845 11.741 7.6741 13.292 5.7896 1.5513 11.741-1.8845 13.292-7.6741z" fill="#fff" stroke="#263238" stroke-linejoin="round" stroke-width=".82963"/>
<path d="m22.113 15.691c1.2472-4.6548-1.5152-9.4394-6.17-10.687s-9.4394 1.5151-10.687 6.17c-1.2473 4.6548 1.5151 9.4393 6.1699 10.687 4.6548 1.2472 9.4394-1.5151 10.687-6.1699z" fill="#fff" stroke="#263238" stroke-linejoin="round" stroke-width=".47408"/>
<path d="m6.7804 17.42c-1.1248-1.9481-1.4538-4.2555-0.91817-6.4404 0.5356-2.1848 1.8944-4.0784 3.7926-5.2856-0.1085 0.06265-0.217 0.12529-0.3255 0.18793-1.0132 0.56184-1.9044 1.3198-2.6215 2.2298s-1.2459 1.9536-1.5554 3.07c-0.30952 1.1165-0.39361 2.2834-0.24736 3.4327 0.14626 1.1493 0.51993 2.2579 1.0992 3.2613 0.57928 1.0033 1.3526 1.8813 2.2748 2.5826s1.9748 1.2119 3.0965 1.5021c1.1216 0.2902 2.2898 0.354 3.4364 0.1879s2.2486-0.5589 3.2418-1.1554c0.1085-0.0627 0.217-0.1253 0.3255-0.1879-1.9965 1.0414-4.3184 1.2707-6.48 0.6399-2.1617-0.6309-3.9958-2.073-5.1188-4.0249z" fill="#fff" stroke="#263238" stroke-linejoin="round" stroke-width=".47408"/>
<path d="m16.504 2.1404-0.7188 0.41501" stroke="#263238" stroke-linejoin="round" stroke-width=".47408"/>
<path d="m17.906 2.4607-0.5221 0.30147" stroke="#263238" stroke-linejoin="round" stroke-width=".47408"/>
<path d="m19.836 3.0884-0.5877 0.33931" stroke="#263238" stroke-linejoin="round" stroke-width=".47408"/>
<path d="m21.43 4.3413-0.7844 0.45285" stroke="#263238" stroke-linejoin="round" stroke-width=".47408"/>
<path d="m23.036 5.7652-0.7188 0.41501" stroke="#263238" stroke-linejoin="round" stroke-width=".47408"/>
<path d="m25.184 9.4859-0.7843 0.45285" stroke="#263238" stroke-linejoin="round" stroke-width=".47408"/>
<path d="m24.678 15.694 0.651-0.3758" stroke="#263238" stroke-linejoin="round" stroke-width=".47408"/>
<path d="m24.058 17.182 0.7165-0.4137" stroke="#263238" stroke-linejoin="round" stroke-width=".47408"/>
<path d="m23.411 18.776 0.7188-0.415" stroke="#263238" stroke-linejoin="round" stroke-width=".47408"/>
<path d="m14.735 1.9438-1.1076 0.63947" stroke="#263238" stroke-linejoin="round" stroke-width=".47408"/>
<path d="m14.641 10.431-0.3993-0.69167c-0.8757-1.5167-2.0957-1.9697-3.5581-1.1254-1.4625 0.84437-1.6802 2.1273-0.80452 3.6441l0.75952 1.3155-0.3797 0.2193 0.4293 0.7437 0.3798-0.2193 0.4307 0.746-0.3798 0.2192 0.4307 0.7459 0.3797-0.2192 0.7974 1.3811c0.8757 1.5168 2.0957 1.9698 3.5582 1.1254 1.4624-0.8444 1.6801-2.1274 0.8044-3.6441l-0.432-0.7482-1.4082 0.813 0.4933 0.8545c0.3915 0.6781 0.2735 1.0687-0.2012 1.3428-0.4747 0.274-0.872 0.181-1.2635-0.4972l-0.8588-1.4873 2.0864-1.2046-0.4307-0.7459-2.0863 1.2045-0.4307-0.7459 2.0864-1.2046-0.4294-0.7437-2.0864 1.2046-0.8143-1.4105c-0.3915-0.6781-0.2813-1.0823 0.1934-1.3564 0.4747-0.27406 0.8811-0.16515 1.2713 0.51068l0.4542 0.7867 1.4082-0.8131z" fill="#263238"/>
<path d="m32.658 7.7396-0.1018-0.30961c-0.1661 0.05462-0.2595 0.23056-0.2117 0.39874l2.6509 9.3238c0.019 0.0666 0.0586 0.1254 0.1131 0.1679 0.475 0.3705 1.0922 0.4994 1.7642 0.4776 0.6729-0.0218 1.4328-0.1953 2.2316-0.4657 1.5984-0.541 3.4145-1.4913 5.1159-2.5087 1.7046-1.0193 3.3085-2.1145 4.4854-2.9541 0.5887-0.42 1.0712-0.7766 1.4067-1.0283 0.1678-0.1258 0.2989-0.2255 0.3882-0.2939 0.0447-0.0342 0.0789-0.0605 0.102-0.0784l0.0264-0.0203 0.0067-0.0053 0.0018-0.0014 5e-4 -3e-4c1e-4 -1e-4 2e-4 -2e-4 -0.2001-0.2573l0.2003 0.2571c0.1306-0.1017 0.1642-0.2851 0.0781-0.4265l-5.0111-8.2359c-0.0461-0.07583-0.1212-0.12957-0.2079-0.14878-0.0866-0.01922-0.1774-0.00225-0.2513 0.04697-2.3295 1.5523-5.4965 2.9902-8.0945 4.0432-1.2964 0.52548-2.4461 0.95317-3.2716 1.2494-0.4126 0.14811-0.7441 0.26331-0.9721 0.34141-0.1141 0.03904-0.2022 0.06881-0.2617 0.08876l-0.0674 0.02251-0.017 0.00562-0.0041 0.00137-1e-3 3.3e-4 -3e-4 7e-5 0.1018 0.30963z" fill="#fff" stroke="#263238" stroke-linejoin="round" stroke-width=".65186"/>
<path d="m47.884 8.9999 0.4324-0.10457-0.23-0.38075-2.2295-3.6906-0.1364-0.22573-0.2492 0.08625c-0.1495 0.05175-0.3067 0.07795-0.465 0.07749l-0.0092-3e-5 -0.0092 4.9e-4c-0.1855 0.00996-0.3707-0.02541-0.5396-0.10304-0.1688-0.07764-0.3161-0.1952-0.4293-0.34253l-0.1899-0.24716-0.2554 0.17867c-2.0434 1.4295-4.6455 2.5183-6.7503 3.2515-1.0498 0.36568-1.9707 0.64111-2.6287 0.82501-0.329 0.09192-0.592 0.16092-0.7724 0.20683-0.0901 0.02295-0.1596 0.04013-0.2064 0.05152l-0.0527 0.01273-0.013 0.0031-0.0032 7.3e-4 -6e-4 1.7e-4 -2e-4 2e-5v1e-5l-0.3236 0.07567 0.082 0.3221 1.2636 4.9633c-5e-4 0.0233-7e-4 0.0529-1e-4 0.0882 0.0016 0.0849 0.0082 0.2032 0.0281 0.3422 0.0395 0.2754 0.1332 0.646 0.3559 0.9978 0.2262 0.3574 0.5809 0.6871 1.1216 0.8742 0.535 0.1851 1.2289 0.2226 2.1262 0.0425 1.3905-0.279 3.3516-1.2835 5.1997-2.3743 1.8616-1.0988 3.6552-2.3141 4.7238-3.0502l0.4479-0.3086-0.4834-0.2495c-0.1163-0.06-0.2145-0.1502-0.2842-0.261-0.0675-0.10741-0.1059-0.23046-0.1116-0.35706 0.0103-0.16315 0.0718-0.31902 0.176-0.44525 0.1069-0.12939 0.2528-0.22066 0.4159-0.26012zm-9.5704 4.071c-0.7002 0.1593-1.3628 0.116-1.8627-0.0666-0.5038-0.1839-0.8004-0.4891-0.8783-0.8327-0.0782-0.3451 0.0567-0.7508 0.4294-1.1364 0.3699-0.3828 0.9464-0.7109 1.6465-0.8722 0.6998-0.1614 1.3621-0.1181 1.8624 0.0653 0.5038 0.1848 0.8028 0.4921 0.8827 0.8394 0.0799 0.347-0.0541 0.751-0.4263 1.1342-0.37 0.3809-0.9485 0.7073-1.6537 0.869z" fill="#fff" stroke="#263238" stroke-miterlimit="10" stroke-width=".65186"/>
<path d="m31.771 3.8678c-0.0787-0.15624-0.2667-0.22248-0.426-0.15008-1.1682 0.53105-1.613 1.2806-1.7324 1.9375-0.0578 0.31815-0.0364 0.59892-9e-4 0.79991 0.0177 0.1009 0.0393 0.18312 0.0571 0.24177 0.0089 0.02937 0.0169 0.05299 0.0231 0.07025l0.0078 0.02111 0.0027 0.00687 9e-4 0.00249 5e-4 0.00101 1e-4 4.5e-4c1e-4 2e-4 2e-4 4e-4 0.302-0.12261l-0.3018 0.12301c0.0034 0.00841 0.0072 0.01668 0.0113 0.02477l5.3021 10.422c0.0728 0.1432 0.2392 0.212 0.3919 0.162 0.1527-0.0501 0.2462-0.2039 0.2202-0.3625-0.0677-0.4127 0.2227-0.8487 0.6567-1.236 0.2044-0.1824 0.4166-0.3321 0.579-0.4367 0.0808-0.052 0.1482-0.0922 0.1948-0.119 0.0233-0.0134 0.0413-0.0235 0.0531-0.03l0.0128-7e-3 0.0028-0.0014 2e-4 -2e-4h1e-4c0.1571-0.0829 0.2189-0.2763 0.139-0.4349l-5.4971-10.913z" fill="#fff" stroke="#263238" stroke-linejoin="round" stroke-width=".65186"/>
<path d="m30.175 7.4462-0.0736 0.14719 0.0747 0.14664 4.0789 8.0043 0.308 0.6046 0.2794-0.6184c0.141-0.3122 0.3913-0.5623 0.7039-0.7033l0.3264-0.1473-0.1772-0.3111-4.8358-8.491-0.6847 1.3683z" fill="#fff" stroke="#263238" stroke-miterlimit="10" stroke-width=".65186"/>
<path d="m39.746 31.115 4-1 2.7538-0.6147 4.5-1.5 2.5-0.5 4-2 1.1937 5.1995-16.754 6.581-2.1936-6.1658z" fill="#407BFF"/>
<path d="m35 32 3-0.5 7-1.5 4-1 5.5-2 5-2.5" stroke="#263238"/>
</svg>
