<svg xmlns="http://www.w3.org/2000/svg" xmlns:xlink="http://www.w3.org/1999/xlink" viewBox="0 0 500 500"><defs><clipPath id="freepik--clip-path--inject-14"><polygon points="217.98 192.41 173.71 360.2 223.69 330.21 252.25 372.34 248.68 195.98 217.98 192.41" style="fill:#407BFF"></polygon></clipPath><clipPath id="freepik--clip-path-2--inject-14"><polygon points="278.99 193.69 349.54 352.23 302.95 328.69 273.96 376.78 249.26 202.13 278.99 193.69" style="fill:#407BFF"></polygon></clipPath></defs><g id="freepik--background-simple--inject-14"><path d="M311.62,33.07s-75.94-17-146.28,32.35S63.36,200,35.89,268.6,30.83,401.06,88.43,424.66,181.07,399.48,259,388.21s99.68-2.89,161.77-53.25,67.35-152.82,11.45-221.65S311.62,33.07,311.62,33.07Z" style="fill:#407BFF"></path><path d="M311.62,33.07s-75.94-17-146.28,32.35S63.36,200,35.89,268.6,30.83,401.06,88.43,424.66,181.07,399.48,259,388.21s99.68-2.89,161.77-53.25,67.35-152.82,11.45-221.65S311.62,33.07,311.62,33.07Z" style="fill:#fff;opacity:0.7000000000000001"></path></g><g id="freepik--Medal--inject-14"><polygon points="217.98 192.41 173.71 360.2 223.69 330.21 252.25 372.34 248.68 195.98 217.98 192.41" style="fill:#407BFF"></polygon><g style="clip-path:url(#freepik--clip-path--inject-14)"><polygon points="225.68 321.19 184.41 345.96 222.98 199.75 242.09 201.97 245.09 349.81 225.68 321.19" style="fill:#fff"></polygon><path d="M249.5,236.32,248.68,196,218,192.41l-9.47,35.89c3.38,6.81,5.7,15.86,11.63,17.79,8,2.58,18.65-10,27.47-10A10.24,10.24,0,0,1,249.5,236.32Z" style="opacity:0.30000000000000004"></path></g><polygon points="278.99 193.69 349.54 352.23 302.95 328.69 273.96 376.78 249.26 202.13 278.99 193.69" style="fill:#407BFF"></polygon><g style="clip-path:url(#freepik--clip-path-2--inject-14)"><polygon points="256.72 206.98 275.23 201.73 335.75 337.75 300.42 319.89 277.96 357.16 256.72 206.98" style="fill:#fff"></polygon><path d="M279,193.69l-29.73,8.44L254,235.47h.44c8.82,0,19.52,12.53,27.48,9.95,6.1-2,8.38-11.53,11.93-18.4Z" style="opacity:0.30000000000000004"></path></g><path d="M343.31,150c0,8.82-15.33,15.11-17.92,23.06-2.67,8.25,5.94,22.33.94,29.2s-21.13,3.07-28.06,8.11-8.13,21.52-16.38,24.19c-8,2.59-18.66-10-27.48-10s-19.51,12.54-27.47,10c-8.25-2.67-9.52-19.19-16.38-24.19s-23-1.18-28.07-8.11,3.62-20.95.94-29.19c-2.58-8-17.91-14.25-17.91-23.07s15.33-15.11,17.91-23.06c2.68-8.25-5.93-22.33-.94-29.2s21.13-3.07,28.07-8.11,8.13-21.52,16.38-24.19c8-2.59,18.65,9.95,27.47,9.95s19.52-12.54,27.48-9.95c8.24,2.67,9.51,19.19,16.38,24.19s23,1.18,28.06,8.11-3.61,21-.94,29.19C328,134.85,343.31,141.14,343.31,150Z" style="fill:#407BFF"></path><path d="M333.61,150c0,7.86-13.66,13.46-16,20.55-2.39,7.35,5.28,19.89.83,26s-18.82,2.74-25,7.23-7.24,19.17-14.59,21.56c-7.09,2.3-16.62-8.87-24.48-8.87S237,227.6,229.94,225.3c-7.35-2.39-8.48-17.1-14.6-21.56s-20.5-1.05-25-7.23,3.22-18.65.84-26c-2.31-7.09-16-12.69-16-20.55s13.65-13.46,16-20.55c2.38-7.35-5.29-19.89-.84-26s18.83-2.74,25-7.23,7.25-19.17,14.6-21.56c7.08-2.3,16.62,8.87,24.47,8.87s17.39-11.17,24.48-8.87c7.35,2.39,8.48,17.1,14.59,21.56s20.51,1,25,7.23-3.22,18.65-.83,26C320,136.5,333.61,142.1,333.61,150Z" style="fill:#fff;opacity:0.6000000000000001"></path><path d="M343.31,150c0,8.82-15.33,15.11-17.92,23.06-2.67,8.25,5.94,22.33.94,29.2s-21.13,3.07-28.06,8.11-8.13,21.52-16.38,24.19c-8,2.59-18.66-10-27.48-10s-19.51,12.54-27.47,10c-8.25-2.67-9.52-19.19-16.38-24.19s-23-1.18-28.07-8.11,3.62-20.95.94-29.19c-2.58-8-17.91-14.25-17.91-23.07s15.33-15.11,17.91-23.06c2.68-8.25-5.93-22.33-.94-29.2s21.13-3.07,28.07-8.11,8.13-21.52,16.38-24.19c8-2.59,18.65,9.95,27.47,9.95s19.52-12.54,27.48-9.95c8.24,2.67,9.51,19.19,16.38,24.19s23,1.18,28.06,8.11-3.61,21-.94,29.19C328,134.85,343.31,141.14,343.31,150Z" style="fill:none"></path><circle cx="254.41" cy="149.96" r="66.04" style="fill:#fff"></circle><path d="M222.94,119c7.89-3.88,14.12-6.09,24.23-18.14h24.64v78.36h12.87v18.41H229.31V179.26h13.84V127.9l-13.84,6.51Z" style="fill:#263238"></path></g><g id="freepik--character-2--inject-14"><ellipse cx="359.21" cy="455.1" rx="93.82" ry="18.38" style="opacity:0.2"></ellipse><path d="M445.94,221.44c-1.47-6.87-2.29-6.54-10.63-9.16a104.38,104.38,0,0,0-28.3-4.75,60.39,60.39,0,0,0-18.33,2.13s-10.48,1.31-18,3c-6.45,12.88.83,30.56.83,30.56s9.16,20.12,9.16,30.43-7.86,28.3-8.18,28.79-24.21,42-30.27,56.11-6.21,19.8-2.94,25.36,40.57,56.93,40.57,56.93-10,11.45-14.56,14.4S355,458.65,357,461.11s15.21,3.43,18.81,2.61,11.78-8,16.52-11.28,9-5.57,7.2-9.66-5.73-7.69-7.36-11-7.53-12.76-10.8-24.54-5.72-18.81-9.49-25.19-6.38-8.83-6.38-8.83,14.07-12.93,21.6-19.47,14.23-11.94,14.23-11.94,25.52-26.18,27.81-31.91,8.51-23.72,13.09-39.42S447.41,228.31,445.94,221.44Z" style="fill:#407BFF;stroke:#263238;stroke-linecap:round;stroke-linejoin:round;stroke-width:0.9671969042686683px"></path><path d="M371.51,243.2s-7.28-17.68-.83-30.56a44.22,44.22,0,0,0-5.23,1.44c-6.21,2.29-36.48,15-39.59,16.36s-8.83,6.05-7.36,11,3.76,6.38,14.23,6.54S371.51,243.2,371.51,243.2Z" style="fill:#263238;stroke:#263238;stroke-linecap:round;stroke-linejoin:round;stroke-width:0.9671969042686683px"></path><path d="M349.26,153.88s9.32,4.74,9.81,5.56-.16,2.61-.82,3.92-4.25,4.42-5.88,5.07-.33-4.25-.33-7-4.75-5.07-5.24-6.38S348,153.38,349.26,153.88Z" style="fill:#fff;stroke:#263238;stroke-linecap:round;stroke-linejoin:round;stroke-width:0.9671969042686683px"></path><path d="M331.42,246.8l-3.59,1c-3.6,1-9.82,1.47-10.8.16s-4.42-18.65-3.93-28.3,14.89-50.88,16.53-54,15.7-13.25,15.7-13.25,1.8-.49,3.93,1.48,8.18,6.05,7.85,7.68-3.76,6.55-5.24,7.86-3.76,0-3.76,0-1.8,3.1-4.09,4.09-7.69-.17-7.69-.17-4.41,27.49-3.11,38,3.93,22.74,2,28.63" style="fill:#263238;stroke:#263238;stroke-linecap:round;stroke-linejoin:round;stroke-width:0.9671969042686683px"></path><path d="M344,173.51c2.29-1,4.09-4.09,4.09-4.09s2.29,1.31,3.76,0,4.91-6.22,5.24-7.86-5.73-5.72-7.85-7.68-3.93-1.48-3.93-1.48-14.07,10.15-15.7,13.25c-.4.76-1.55,3.77-3.08,8a20.05,20.05,0,0,0,9.21,3.47c.34-2.36.57-3.81.57-3.81S341.73,174.49,344,173.51Z" style="fill:#fff;stroke:#263238;stroke-linecap:round;stroke-linejoin:round;stroke-width:0.9671969042686683px"></path><path d="M358.57,163.05s2.29.65,1.64,2.29-3.11,3.43-4.58,3.27-1.8-2.13-.82-3.76S357.75,162.39,358.57,163.05Z" style="fill:#fff;stroke:#263238;stroke-linecap:round;stroke-linejoin:round;stroke-width:0.9671969042686683px"></path><path d="M348.11,169.42s-1.31-1.48-.49-2.62,2.45-.33,2.45-.33l-2.45-3.11" style="fill:none;stroke:#263238;stroke-linecap:round;stroke-linejoin:round;stroke-width:0.9671969042686683px"></path><circle cx="367.54" cy="279.58" r="9.26" style="fill:#fff;stroke:#263238;stroke-linecap:round;stroke-linejoin:round;stroke-width:0.9671969042686683px"></circle><path d="M365.11,270.5a19,19,0,0,1,11.51-11.32c9.16-3.42,24.08-7,32.71-18.33s5.51-33,5.51-33l6.71.91s-.9,21.66-5.21,33.16-17.44,18-27.86,19.78S369.43,263.31,365.11,270.5Z" style="fill:#fff;stroke:#263238;stroke-linecap:round;stroke-linejoin:round;stroke-width:0.9671969042686683px"></path><path d="M365.11,270.5s-1.08-7.37,5.57-15.1,17.44-16.17,19.24-24.08-.18-21.57-.18-21.57l5.75-1.62a52.35,52.35,0,0,1,.18,21.75c-2.52,11.14-8.63,16.54-16.18,22.29S365.11,270.5,365.11,270.5Z" style="fill:#fff;stroke:#263238;stroke-linecap:round;stroke-linejoin:round;stroke-width:0.9671969042686683px"></path><path d="M439.23,215.55a18.57,18.57,0,0,0-6.7,12.92c-.66,8.51.81,30.92.81,39.76s-6.54,22.08-5.56,28.95,10,15.05,14.89,9.66,8.67-22.74,10.47-45.16.33-37.46-2.45-42S443.32,212.11,439.23,215.55Z" style="fill:#263238;stroke:#263238;stroke-linecap:round;stroke-linejoin:round;stroke-width:0.9671969042686683px"></path><path d="M444.63,300.13c-1,5.56-4.09,11-7.36,12.1s-7-3.43-12.27-11.94-8-17.83-10-27.65a265.75,265.75,0,0,1-3.92-27.15c-.17-3.76,0-4.75,2.12-7s9.82-4.09,9.82-4.09l1.31-2.29c.65-1.14,4.09-1.8,5.72-.81s2.46,6.38,2.46,6.38,4.58,2.61,4.58,5.23-2.95,5.4-6.22,9.82-4.25,2.78-4.58,6.87,2,9.49,6.05,13.25,10,8.34,11.62,15.7" style="fill:#263238;stroke:#263238;stroke-linecap:round;stroke-linejoin:round;stroke-width:0.9671969042686683px"></path><path d="M426.28,260.46c0-.3,0-.61,0-.9.33-4.09,1.31-2.46,4.58-6.87s6.22-7.2,6.22-9.82-4.58-5.23-4.58-5.23-.82-5.4-2.46-6.38-5.07-.33-5.72.81L423,234.36s-7.69,1.8-9.82,4.09-2.29,3.28-2.12,7c.1,2.44.9,9,2,16A24.38,24.38,0,0,0,426.28,260.46Z" style="fill:#fff;stroke:#263238;stroke-linecap:round;stroke-linejoin:round;stroke-width:0.9671969042686683px"></path><path d="M429.3,309.43c-19.7-6.59-44.11-9.71-55.15-10.87-.91,2.26-1.57,3.72-1.66,3.86-.33.49-24.21,42-30.27,56.11s-6.21,19.8-2.94,25.36,40.57,56.93,40.57,56.93c6-.73,11.35-4.76,13.67-6.75a16.46,16.46,0,0,1-1.4-2.25c-1.64-3.27-7.53-12.76-10.8-24.54s-5.72-18.81-9.49-25.19-6.38-8.83-6.38-8.83,14.07-12.93,21.6-19.47,14.23-11.94,14.23-11.94,25.52-26.18,27.81-31.91C429.16,309.78,429.22,309.61,429.3,309.43Z" style="fill:#787878;stroke:#263238;stroke-linecap:round;stroke-linejoin:round;stroke-width:0.9671969042686683px"></path><path d="M393.52,434.07c-1.88,3.56-9.74,10.35-9.74,10.35s-2-2.13-3.11-3.6c-.87-1.11-1.17-.83-1.27-.62l.45.62s-10,11.45-14.56,14.4S355,458.65,357,461.11s15.21,3.43,18.81,2.61,11.78-8,16.52-11.28,9-5.57,7.2-9.66C398.08,439.61,395.41,436.73,393.52,434.07Z" style="fill:#407BFF;stroke:#263238;stroke-linecap:round;stroke-linejoin:round;stroke-width:0.9671969042686683px"></path><path d="M373.14,461.76c-3.39.88-12.46-1-16.5-2a1.21,1.21,0,0,0,.31,1.32c2,2.45,15.21,3.43,18.81,2.61s11.78-8,16.52-11.28,9-5.57,7.2-9.66c-.21-.47-.45-.94-.71-1.4-.85,1.14-1.85,2.42-2.89,3.69C392.94,448.67,377.56,460.61,373.14,461.76Z" style="fill:#fff;stroke:#263238;stroke-linecap:round;stroke-linejoin:round;stroke-width:0.9671969042686683px"></path><path d="M419.28,317.63S405,304.87,391.14,300.29s-39.76-3.27-46.3-.65-3.76,11-3.6,20.61,6.71,27.48,9.49,37.63,3.76,21.43,4.09,25.35.33,5.4.33,5.4-18.16-.16-22.91-.65-7.52,1-8.34,2.62a4.12,4.12,0,0,0-.49,2.78s12.27,8,22.9,12.43,20.78,7.2,22.09,6.54,2.61-10.63,2.61-17.5,2.13-39.92,2.13-45.81V333.83s31.74,16.85,44.34,12.92,11.82-37.32,11.82-37.32l-10.19-3.25" style="fill:#787878;stroke:#263238;stroke-linecap:round;stroke-linejoin:round;stroke-width:0.9671969042686683px"></path><path d="M355.15,388.63s-18.16-.16-22.91-.65-7.52,1-8.34,2.62a4.12,4.12,0,0,0-.49,2.78s12.27,8,22.9,12.43,20.78,7.2,22.09,6.54c1.15-.57,2.3-8.37,2.56-14.92C364.22,391.69,355.15,388.63,355.15,388.63Z" style="fill:#407BFF;stroke:#263238;stroke-linecap:round;stroke-linejoin:round;stroke-width:0.9671969042686683px"></path><path d="M368.4,412.35c.51-.25,1-2,1.46-4.32a59.27,59.27,0,0,1-16.68-3.69c-9.25-3.49-24.32-10.82-29.46-13.35a4,4,0,0,0-.31,2.39s12.27,8,22.9,12.43S367.09,413,368.4,412.35Z" style="fill:#fff;stroke:#263238;stroke-linecap:round;stroke-linejoin:round;stroke-width:0.9671969042686683px"></path><path d="M373.14,333.83s-.16-14.23-7.36-21.27" style="fill:none;stroke:#263238;stroke-linecap:round;stroke-linejoin:round;stroke-width:0.9671969042686683px"></path><path d="M362,191.9s3.9,12.79,5.62,17.31,1.87,7,7.32,12.16,6.55,9.2,12.16,9.66,7.8-3,7.8-3,.78,5.15,3.74,6.7,9.51,1.87,13.56-6.08,1.56-11.84.16-15.58-3.28-8.42-3.28-8.42a15.79,15.79,0,0,0,3-9.67c-.31-5.45-1.87-6.08-3.58-6.55s-6.55,2.65-8.57,1.72,1.4-6.24-4.06-6.7-11.07,7-20.89,7.79S361.64,188.94,362,191.9Z" style="fill:#fff;stroke:#263238;stroke-linecap:round;stroke-linejoin:round;stroke-width:0.9671969042686683px"></path><path d="M394.85,228.07l8.88-10c3.9-4.36,3.9-10.91,3.9-10.91" style="fill:#fff;stroke:#263238;stroke-linecap:round;stroke-linejoin:round;stroke-width:0.9671969042686683px"></path><path d="M377.39,207.18s1.09,5,0,7.48-.16,3.75,1.71,3.9a4.74,4.74,0,0,0,2.65-.31" style="fill:none;stroke:#263238;stroke-linecap:round;stroke-linejoin:round;stroke-width:0.9671969042686683px"></path><path d="M383.16,207.65s1.09-3.27,6.23-2.34" style="fill:none;stroke:#263238;stroke-linecap:round;stroke-linejoin:round;stroke-width:1.9343938085373367px"></path><path d="M370.22,208.58s3-1.71,5.14.63" style="fill:none;stroke:#263238;stroke-linecap:round;stroke-linejoin:round;stroke-width:1.9343938085373367px"></path><path d="M367.57,203.6s3.58-3.59,7.79,2" style="fill:none;stroke:#263238;stroke-linecap:round;stroke-linejoin:round;stroke-width:0.9671969042686683px"></path><path d="M380.35,204.06s1.71-5.76,7-5" style="fill:none;stroke:#263238;stroke-linecap:round;stroke-linejoin:round;stroke-width:0.9671969042686683px"></path><path d="M385.18,219.81s8.11-1.56,9.67-11.07c0,0,4,6.41,1.23,11.55s-6.53,4.35-6.53,4.35Z" style="fill:none;stroke:#263238;stroke-linecap:round;stroke-linejoin:round;stroke-width:0.9671969042686683px"></path><path d="M367.25,173.82s4.06-5.61-.46-4.83-12,9.51-11.07,17.77,17.61,10.13,25.72,8.89a24.07,24.07,0,0,0,12.94-6.4s-3,6.4.16,7.17,4.67,0,4.67,0,3,6.71,3.9,4.68-.22-3.62.31-6.23c1.25-6.08,5.77-5.93,5.77-5.93s.78-15.12-4.83-21-20.27-6.55-26.35-3.43S367.25,173.82,367.25,173.82Z" style="fill:#263238;stroke:#263238;stroke-linecap:round;stroke-linejoin:round;stroke-width:0.9671969042686683px"></path></g><g id="freepik--character-1--inject-14"><ellipse cx="131.92" cy="455.1" rx="93.82" ry="18.38" style="opacity:0.2"></ellipse><path d="M69.65,434.9s-12.21,6.3-17.09,12,.61,9.56,10.58,6.31,13.63-17.29,13.63-17.29S73.31,433.07,69.65,434.9Z" style="fill:#407BFF;stroke:#263238;stroke-linecap:round;stroke-linejoin:round;stroke-width:0.9671969042686683px"></path><path d="M199.25,434.9s12.21,6.3,17.09,12-.61,9.56-10.58,6.31-13.63-17.29-13.63-17.29S195.59,433.07,199.25,434.9Z" style="fill:#407BFF;stroke:#263238;stroke-linecap:round;stroke-linejoin:round;stroke-width:0.9671969042686683px"></path><path d="M122.36,176.91l-.15,10.85a126.27,126.27,0,0,1-13.41-3.92c-7.23-2.56-9-.3-13.26,3.31S71.14,214,69,215.93s-8.74,12-8.74,17.17,4.07,8.74,12.2,4.37,23.05-16.12,23.05-16.12,7.69,22.9,7.84,26.82-5.28,12.5-8.14,20.34S91,298.19,89.06,305.72s-6.93,15.37-10.84,35.4S74,376.53,73.1,380.44,71,399.28,69.63,411s-2.26,24.7-.75,26.06,5.87,2.26,8,0S94.79,394.76,98,385.57s24.56-50.78,26.37-55.45S129.44,319,129.44,319s11.15,20.79,14.91,31.18,24.41,50.47,30.14,61,15.06,24.55,17.62,25.91,6.69.52,7.14-2.19-3.82-44.36-7-52.2-5.27-12.2-6.17-17.92-9.65-52.58-13.71-61.17-4.67-10.24-4.82-10.7-3-10.54-7.24-20.79-8.88-19.43-8.88-19.43l7.68-21.09s11.3,23.35,16.57,28.32,22.45,26.36,22.45,26.36l5.42-5.42-17.47-30s-3.77-19.43-8.29-31.64-7.83-21.24-13.71-24-18.53-3.47-20.79-4.37-1.51-1.66-1.66-2.11.76-10.54.76-10.54S134,181.13,130,179.92A63.28,63.28,0,0,1,122.36,176.91Z" style="fill:#263238;stroke:#263238;stroke-linecap:round;stroke-linejoin:round;stroke-width:0.9671969042686683px"></path><line x1="154.81" y1="285.19" x2="137.4" y2="307.76" style="fill:none;stroke:#696969;stroke-linecap:round;stroke-linejoin:round;stroke-width:0.9671969042686683px"></line><line x1="99.36" y1="287.13" x2="118.71" y2="307.12" style="fill:none;stroke:#696969;stroke-linecap:round;stroke-linejoin:round;stroke-width:0.9671969042686683px"></line><line x1="102.59" y1="298.73" x2="121.93" y2="310.98" style="fill:none;stroke:#696969;stroke-linecap:round;stroke-linejoin:round;stroke-width:0.9671969042686683px"></line><path d="M151.44,252.69l7.68-21.09S155.05,203,147.3,191.7a24.83,24.83,0,0,1-4-.78c-2.26-.9-1.51-1.66-1.66-2.11s.76-10.54.76-10.54S134,181.13,130,179.92a63.28,63.28,0,0,1-7.68-3l-.15,10.85s-2-.45-5.12-1.31c-3.31,4.25-16.68,21.88-21.55,34.9,0,0,7.69,22.9,7.84,26.82.11,2.84-2.71,8.12-5.36,13.8,4.91,3.29,13.68,7.18,28,7.44,17.19.31,26.41-3.65,30.49-6.16C153.69,257.12,151.44,252.69,151.44,252.69Z" style="fill:#407BFF;stroke:#263238;stroke-linecap:round;stroke-linejoin:round;stroke-width:0.9671969042686683px"></path><path d="M141.26,203c3-2.92,3.92-7.35,3.87-11.66a9.74,9.74,0,0,1-1.83-.43c-2.26-.9-1.51-1.66-1.66-2.11s.76-10.54.76-10.54S134,181.13,130,179.92a63.28,63.28,0,0,1-7.68-3l-.15,10.85s-.63-.14-1.72-.41c-.83,3.2-2.43,11.81,2.77,16.53C128.22,208.37,136.59,207.5,141.26,203Z" style="fill:#b2b2b2;stroke:#263238;stroke-linecap:round;stroke-linejoin:round;stroke-width:0.9671969042686683px"></path><path d="M116.63,186.25s-.45,11.3-3.31,17.48-5.88,7.08-5.88,7.08a27.64,27.64,0,0,0,3.77,2c2.41,1,2.86.6,2.86.6s4.52-2.86,6.63-10.4a49.57,49.57,0,0,0,1.51-15.21Z" style="fill:#fff;stroke:#263238;stroke-linecap:round;stroke-linejoin:round;stroke-width:0.9671969042686683px"></path><path d="M125.11,128.51s-.19-5.11,9.09-7.57,17.44,4.92,18.19,9.85-.75,7.58-1.89,8-6.06-4.55-13.45-7S124.16,130.79,125.11,128.51Z" style="fill:#263238;stroke:#263238;stroke-linecap:round;stroke-linejoin:round;stroke-width:0.9671969042686683px"></path><path d="M115.63,153.34s-1.13-3.41-4-1.33-1.52,8.53-.19,10.42,4,1.9,4.54.57.57-8.91.57-8.91" style="fill:#b2b2b2;stroke:#263238;stroke-linecap:round;stroke-linejoin:round;stroke-width:0.9671969042686683px"></path><path d="M115.26,136.85s-3.23,4.74-1.71,9.48.76,8.14.76,13.64,4,12.88,6.63,17.43,7.94,9.95,13.62,8.25,14-13.56,15.56-19.05.95-6.82,1.89-9.1a32.54,32.54,0,0,0,2.28-12.69c0-6.25-7.39-14.59-16.49-17.24S118.67,127.57,115.26,136.85Z" style="fill:#b2b2b2;stroke:#263238;stroke-linecap:round;stroke-linejoin:round;stroke-width:0.9671969042686683px"></path><path d="M149.74,158.83s1.52-4.55,4.36-3.22,1.7,8.34-.57,10.42-4.74,1.14-4.74-.19" style="fill:#b2b2b2;stroke:#263238;stroke-linecap:round;stroke-linejoin:round;stroke-width:0.9671969042686683px"></path><path d="M128.33,164.89a5.11,5.11,0,0,0,7,.19" style="fill:none;stroke:#263238;stroke-linecap:round;stroke-linejoin:round;stroke-width:0.9671969042686683px"></path><path d="M126.67,169.32s4.59,4,10.91-.09" style="fill:none;stroke:#263238;stroke-linecap:round;stroke-linejoin:round;stroke-width:0.9671969042686683px"></path><ellipse cx="125.28" cy="158.06" rx="1.39" ry="2.25" style="fill:#263238"></ellipse><ellipse cx="138.79" cy="158.06" rx="1.39" ry="2.25" style="fill:#263238"></ellipse><path d="M121.47,152.52a6.75,6.75,0,0,1,6.84-1.3" style="fill:none;stroke:#263238;stroke-linecap:round;stroke-linejoin:round;stroke-width:0.9671969042686683px"></path><path d="M135.41,151.74s5.11-2.25,7.88,2.25" style="fill:none;stroke:#263238;stroke-linecap:round;stroke-linejoin:round;stroke-width:0.9671969042686683px"></path><path d="M137.8,127.57c-9.09-2.66-19.13,0-22.54,9.28,0,0-3.23,4.74-1.71,9.48a19.16,19.16,0,0,1,.88,4.64l.26.28a8.47,8.47,0,0,0,2.08-4.55c.38-2.84,6.63-10,16.87-9.28s15.15,8,16.1,12.7-1.51,8.14,2.27,7.38a32.54,32.54,0,0,0,2.28-12.69C154.29,138.56,146.9,130.22,137.8,127.57Z" style="fill:#263238;stroke:#263238;stroke-linecap:round;stroke-linejoin:round;stroke-width:0.9671969042686683px"></path><path d="M203.56,280.86l9.79,2a3.39,3.39,0,0,1,2,1.22c1.65,2.07,5.35,6.82,5.7,8.22.45,1.81.45,2.26-.15,2.26a14.93,14.93,0,0,1-2.41-.3c-.76-.15-3.62-4.22-5.88-4.37a33.75,33.75,0,0,1-6.48-1.66s4.82,3.62,5.88,4.52.9,1.36.15,1.66-1.81-.15-2.86-.6-1.51-.61-5.13-2.11-6-5.43-6-5.43Z" style="fill:#b2b2b2;stroke:#263238;stroke-linecap:round;stroke-linejoin:round;stroke-width:0.9671969042686683px"></path><polyline points="165.15 215.48 159.12 231.6 164.54 221.96" style="fill:none;stroke:#696969;stroke-linecap:round;stroke-linejoin:round;stroke-width:0.9671969042686683px"></polyline><polyline points="95.54 203.57 95.54 221.35 92.53 208.4" style="fill:none;stroke:#696969;stroke-linecap:round;stroke-linejoin:round;stroke-width:0.9671969042686683px"></polyline><path d="M125.37,215.63a6.92,6.92,0,0,0,5.43,1.05c3-.75,11.14-6.63,16.12-13.26S154.15,193,154.15,193l-8-2.41s-4.22,11.45-9.79,16.42-13.86,7.38-13.86,7.38Z" style="fill:#fff;stroke:#263238;stroke-linecap:round;stroke-linejoin:round;stroke-width:0.9671969042686683px"></path><path d="M88.16,161.84s35.56,52.88,37.21,53.79a26.61,26.61,0,0,0,2.41,1.2s-8.43,0-10.84-2-21.7-37.81-23.36-41.73a86.87,86.87,0,0,0-4.52-8.73l-1.5-2.87Z" style="fill:#fff;stroke:#263238;stroke-linecap:round;stroke-linejoin:round;stroke-width:0.9671969042686683px"></path><path d="M88.16,161.84s14.77,42.49,16,45.5,5.42,5.43,7.68,5.73l2.26.3s-10.69-17.48-15.36-28S88.16,161.84,88.16,161.84Z" style="fill:#fff;stroke:#263238;stroke-linecap:round;stroke-linejoin:round;stroke-width:0.9671969042686683px"></path><circle cx="84.17" cy="154.39" r="9.27" style="fill:#fff;stroke:#263238;stroke-linecap:round;stroke-linejoin:round;stroke-width:0.9671969042686683px"></circle><path d="M75.51,235.66c-4.82,2.57-14.32,8.59-16.12,5.88s-1.51-18.08,2.86-27.27,12.25-25.62,12.5-28.44-.38-21.51-.12-22.28,8.06-5,8.06-5a2,2,0,0,1,2.18.89c.77,1.28,4.23,5,4.1,6s-.26,1.79-.26,1.79,2.05,1.16,1.54,3.08-1.41,7.81-2.56,8.58a4.83,4.83,0,0,1-3.08.38,11.14,11.14,0,0,1-1.15,4c-.89,1.41-1.79,2.18-1.92,2.56s-2.87,44.71-4.38,46.22" style="fill:#263238;stroke:#263238;stroke-linecap:round;stroke-linejoin:round;stroke-width:0.9671969042686683px"></path><path d="M88.71,167.26s.13-.76.26-1.79-3.33-4.74-4.1-6a2,2,0,0,0-2.18-.89s-7.81,4.22-8.06,5,.26,15.95.18,21A7.5,7.5,0,0,0,81.52,186c0-.09,0-.15,0-.17.13-.38,1-1.15,1.92-2.56a11.14,11.14,0,0,0,1.15-4,4.83,4.83,0,0,0,3.08-.38c1.15-.77,2-6.66,2.56-8.58S88.71,167.26,88.71,167.26Z" style="fill:#b2b2b2;stroke:#263238;stroke-linecap:round;stroke-linejoin:round;stroke-width:0.9671969042686683px"></path><line x1="88.71" y1="167.26" x2="82.18" y2="164.7" style="fill:none;stroke:#263238;stroke-linecap:round;stroke-linejoin:round;stroke-width:0.9671969042686683px"></line><path d="M81.41,168.29s6.79,1.53,7.43,2.56a4.89,4.89,0,0,1,.64,2.3" style="fill:none;stroke:#263238;stroke-linecap:round;stroke-linejoin:round;stroke-width:0.9671969042686683px"></path><path d="M81.8,172s5.12,1.15,5.89,1.79.89,3.33.89,3.33" style="fill:none;stroke:#263238;stroke-linecap:round;stroke-linejoin:round;stroke-width:0.9671969042686683px"></path><polyline points="84.61 179.3 84.61 177.25 86.02 177.12" style="fill:none;stroke:#263238;stroke-linecap:round;stroke-linejoin:round;stroke-width:0.9671969042686683px"></polyline><path d="M125.22,270.47l-1.81,24.7,2.87.45S126.28,269.56,125.22,270.47Z" style="fill:#fff;stroke:#263238;stroke-linecap:round;stroke-linejoin:round;stroke-width:0.9671969042686683px"></path><path d="M127,271.37l.9,27.42,4.52-.15-4.37-27S127.33,269.11,127,271.37Z" style="fill:#fff;stroke:#263238;stroke-linecap:round;stroke-linejoin:round;stroke-width:0.9671969042686683px"></path></g></svg>