<svg xmlns="http://www.w3.org/2000/svg" viewBox="0 0 500 500"><g id="freepik--background-simple--inject-91"><path d="M380,133.87s-21-30-56-47-91-23-133,23-15.74,33.77-64.37,50.89S45,200.87,67,240.87,175.92,288,156.46,297.45,66,321.87,95,362.87s134,15,173,16,16,25,50,28,79-33,92-86-62-76-45-100S403,175.87,380,133.87Z" style="fill:#407BFF"></path><path d="M380,133.87s-21-30-56-47-91-23-133,23-15.74,33.77-64.37,50.89S45,200.87,67,240.87,175.92,288,156.46,297.45,66,321.87,95,362.87s134,15,173,16,16,25,50,28,79-33,92-86-62-76-45-100S403,175.87,380,133.87Z" style="fill:#fff;opacity:0.7000000000000001"></path></g><g id="freepik--speech-bubble--inject-91"><path d="M354.19,119.21v8.44a2.82,2.82,0,0,1-2.82,2.82H126.63a2.82,2.82,0,0,1-2.82-2.82V86.88a2.82,2.82,0,0,1,2.82-2.82H351.37a2.82,2.82,0,0,1,2.82,2.82V98.14" style="fill:#fff;stroke:#2e353a;stroke-miterlimit:10"></path><line x1="354.19" y1="104.92" x2="354.19" y2="115.83" style="fill:#fff;stroke:#2e353a;stroke-miterlimit:10"></line><line x1="127.57" y1="112.15" x2="344.12" y2="112.15" style="fill:none;stroke:#2e353a;stroke-linecap:round;stroke-linejoin:round"></line><line x1="127.57" y1="116.36" x2="344.12" y2="116.36" style="fill:none;stroke:#2e353a;stroke-linecap:round;stroke-linejoin:round"></line><line x1="127.57" y1="120.57" x2="344.12" y2="120.57" style="fill:none;stroke:#2e353a;stroke-linecap:round;stroke-linejoin:round"></line><line x1="127.57" y1="124.78" x2="344.12" y2="124.78" style="fill:none;stroke:#2e353a;stroke-linecap:round;stroke-linejoin:round"></line><line x1="144.19" y1="90.34" x2="164.61" y2="90.34" style="fill:none;stroke:#2e353a;stroke-linecap:round;stroke-linejoin:round"></line><line x1="144.19" y1="94.55" x2="196.11" y2="94.55" style="fill:none;stroke:#2e353a;stroke-linecap:round;stroke-linejoin:round"></line><line x1="144.19" y1="98.76" x2="170.15" y2="98.76" style="fill:none;stroke:#2e353a;stroke-linecap:round;stroke-linejoin:round"></line><rect x="127.22" y="86.83" width="14.89" height="16.96" rx="1.9" style="fill:#407BFF"></rect><path d="M354.19,331V362.3a2.82,2.82,0,0,1-2.82,2.82H126.63a2.82,2.82,0,0,1-2.82-2.82V315.87a2.81,2.81,0,0,1,2.82-2.81H351.37a2.81,2.81,0,0,1,2.82,2.81v9.5" style="fill:#fff;stroke:#2e353a;stroke-miterlimit:10"></path><line x1="127.57" y1="341.14" x2="344.12" y2="341.14" style="fill:none;stroke:#2e353a;stroke-linecap:round;stroke-linejoin:round"></line><line x1="127.57" y1="345.35" x2="344.12" y2="345.35" style="fill:none;stroke:#2e353a;stroke-linecap:round;stroke-linejoin:round"></line><line x1="127.57" y1="349.56" x2="344.12" y2="349.56" style="fill:none;stroke:#2e353a;stroke-linecap:round;stroke-linejoin:round"></line><line x1="127.57" y1="353.77" x2="344.12" y2="353.77" style="fill:none;stroke:#2e353a;stroke-linecap:round;stroke-linejoin:round"></line><line x1="144.19" y1="319.33" x2="164.61" y2="319.33" style="fill:none;stroke:#2e353a;stroke-linecap:round;stroke-linejoin:round"></line><line x1="144.19" y1="323.54" x2="196.11" y2="323.54" style="fill:none;stroke:#2e353a;stroke-linecap:round;stroke-linejoin:round"></line><line x1="144.19" y1="327.75" x2="170.15" y2="327.75" style="fill:none;stroke:#2e353a;stroke-linecap:round;stroke-linejoin:round"></line><rect x="127.22" y="315.83" width="14.89" height="16.96" rx="1.9" style="fill:#407BFF"></rect><path d="M123.81,222.67v-59.1a2.81,2.81,0,0,1,2.82-2.81H351.37a2.81,2.81,0,0,1,2.82,2.81V285.4a2.81,2.81,0,0,1-2.82,2.81H126.63a2.81,2.81,0,0,1-2.82-2.81V247.12" style="fill:#fff;stroke:#2e353a;stroke-miterlimit:10"></path><line x1="123.81" y1="240.35" x2="123.81" y2="228.31" style="fill:#fff;stroke:#2e353a;stroke-miterlimit:10"></line><line x1="144.19" y1="167.03" x2="164.61" y2="167.03" style="fill:none;stroke:#2e353a;stroke-linecap:round;stroke-linejoin:round"></line><line x1="144.19" y1="171.24" x2="196.11" y2="171.24" style="fill:none;stroke:#2e353a;stroke-linecap:round;stroke-linejoin:round"></line><line x1="144.19" y1="175.45" x2="170.15" y2="175.45" style="fill:none;stroke:#2e353a;stroke-linecap:round;stroke-linejoin:round"></line><rect x="127.22" y="163.53" width="14.89" height="16.96" rx="1.9" style="fill:#407BFF"></rect><path d="M156.46,297.45a5.78,5.78,0,1,0-5.78,5.78A5.78,5.78,0,0,0,156.46,297.45Z" style="fill:#407BFF"></path><circle cx="166.73" cy="297.45" r="5.78" style="fill:#407BFF"></circle><path d="M188.57,297.45a5.78,5.78,0,1,0-5.78,5.78A5.78,5.78,0,0,0,188.57,297.45Z" style="fill:#407BFF"></path><path d="M156.46,138.17a5.78,5.78,0,1,0-5.78,5.78A5.78,5.78,0,0,0,156.46,138.17Z" style="fill:#407BFF"></path><path d="M172.52,138.17a5.79,5.79,0,1,0-5.79,5.78A5.78,5.78,0,0,0,172.52,138.17Z" style="fill:#407BFF"></path><path d="M188.57,138.17a5.78,5.78,0,1,0-5.78,5.78A5.78,5.78,0,0,0,188.57,138.17Z" style="fill:#407BFF"></path><path d="M156.46,374.52a5.78,5.78,0,1,0-5.78,5.78A5.78,5.78,0,0,0,156.46,374.52Z" style="fill:#407BFF"></path><path d="M172.52,374.52a5.79,5.79,0,1,0-5.79,5.78A5.78,5.78,0,0,0,172.52,374.52Z" style="fill:#407BFF"></path><path d="M188.57,374.52a5.78,5.78,0,1,0-5.78,5.78A5.78,5.78,0,0,0,188.57,374.52Z" style="fill:#407BFF"></path><rect x="143.15" y="181.88" width="199.75" height="94.91" style="fill:#407BFF"></rect><rect x="143.15" y="181.88" width="199.75" height="94.91" style="fill:#fff;opacity:0.5"></rect><rect x="143.15" y="181.88" width="199.75" height="94.91" style="fill:none;stroke:#2e353a;stroke-miterlimit:10"></rect><line x1="143.15" y1="276.79" x2="342.9" y2="181.88" style="fill:none;stroke:#2e353a;stroke-miterlimit:10"></line></g><g id="freepik--Shadow--inject-91"><ellipse cx="240.5" cy="417.87" rx="52.5" ry="13" style="fill:#fff;opacity:0.30000000000000004"></ellipse><ellipse cx="240.5" cy="417.87" rx="52.5" ry="13" style="fill:#407BFF"></ellipse><ellipse cx="240.5" cy="417.87" rx="52.5" ry="13" style="fill:#fff;opacity:0.5"></ellipse></g><g id="freepik--Character--inject-91"><path d="M193.3,218.12s10.95,12.25,15.7,20.25,11.75,9.75,13.5,9.75,12.25-13.5,13-14.5-7.75-5.75-7.75-5.75l-8,2s-11.5-3.5-15.5-8S192.85,211.37,193.3,218.12Z" style="fill:#fff;stroke:#2e353a;stroke-linecap:round;stroke-linejoin:round"></path><path d="M237.75,199.37s-3.25,10.75-5.5,17-3.25,8.5-5,9.5a12.93,12.93,0,0,0-3.25,3,25.91,25.91,0,0,0,9.5,7.75c5.75,2.5,8.25,1.75,8.25,1.75s1.5-26.75.5-33.5S240.75,195.12,237.75,199.37Z" style="fill:#fff;stroke:#2e353a;stroke-linecap:round;stroke-linejoin:round"></path><path d="M246.33,409s.5,1-3.25,3.25-12,6.5-12.5,9,3.75,2.5,11,2.5,17-4.5,19.75-5.25,1.5-4.5.25-7.25S249.08,406.7,246.33,409Z" style="fill:#fff;stroke:#2e353a;stroke-linecap:round;stroke-linejoin:round"></path><path d="M261.33,418.45c1.92-.52,1.89-2.51,1.27-4.6-2.26,1.48-7.85,4.46-18.27,6.1-7.13,1.13-11.25,1.12-13.6.84a2.57,2.57,0,0,0-.15.41c-.5,2.5,3.75,2.5,11,2.5S258.58,419.2,261.33,418.45Z" style="fill:#fff;stroke:#2e353a;stroke-linecap:round;stroke-linejoin:round"></path><path d="M239.08,395.2s-3.75,3-8.25,7.25-6.25,5.25-2.5,6.25,7-1,11-2.25a43,43,0,0,0,7.5-3.25s2.75-4,.75-8.25S239.08,395.2,239.08,395.2Z" style="fill:#fff;stroke:#2e353a;stroke-linecap:round;stroke-linejoin:round"></path><path d="M246.83,403.2a9.31,9.31,0,0,0,1.12-2.52c-3,1.32-7.51,3.27-11.12,4.77a21,21,0,0,1-10.23,1.18c-.68,1-.25,1.54,1.73,2.07,3.75,1,7-1,11-2.25A43,43,0,0,0,246.83,403.2Z" style="fill:#fff;stroke:#2e353a;stroke-linecap:round;stroke-linejoin:round"></path><path d="M263,304.87c6.75-10.75,7.75-20,10-28.25a32.31,32.31,0,0,0-.25-16.25l-40.5,2s-6.5,19-6.5,20S202.08,330,200.58,337.45s3.5,14.25,5.75,16.5,32.75,41.25,32.75,41.25a27.24,27.24,0,0,1,3,.25,26.25,26.25,0,0,0,2.75.25l.75,6.5a4.9,4.9,0,0,0-1.5,4,7.29,7.29,0,0,0,2.25,4.25s2.25-1.5,8.75.5,7.75,2.75,8,.75-6.75-16.5-6.75-24.75-2.25-19.75-6.5-27.75a47.6,47.6,0,0,0-9-12.25l.25-3S256.25,315.62,263,304.87ZM226.83,340.2c-.5,6.5-.75,11.25-.75,11.25l-5.75-14.75,9-13.5S227.33,333.7,226.83,340.2Z" style="fill:#2e353a;stroke:#2e353a;stroke-linecap:round;stroke-linejoin:round"></path><path d="M236.75,192.62a252.51,252.51,0,0,1-.75,31.5c-1.5,17.75-3.5,36.75-3.75,38.25s10.5,2,22.75,2.25,18-1,18.5-2.75-1-47.25-6.75-63-15-22-18.25-23S236,183.62,236.75,192.62Z" style="fill:#407BFF;stroke:#2e353a;stroke-linecap:round;stroke-linejoin:round"></path><path d="M236.65,183.37a26.92,26.92,0,0,0-2.9,5.94c-1.1,3.32.14,8.15-.69,10.64s.55,3,1.24,1.38,2.08-6.77,2.08-6.77l4.28,2.49s3-3.59,3.59-3.32,4.29,7.33,4.7,5.81,2.91-13.27,2.08-20.18-5.26-7.74-8.16-7.88S236.65,183.37,236.65,183.37Z" style="fill:#fff;stroke:#2e353a;stroke-linecap:round;stroke-linejoin:round"></path><path d="M228.24,180.9s6.23,2.76,8.31,5.88a46.21,46.21,0,0,1,3.81,7.61s3.81-12.11,4.15-17.65-9-17.3-9-17.3-3.8-5.19-6.57,4.15A35.47,35.47,0,0,0,228.24,180.9Z" style="fill:#fff;stroke:#2e353a;stroke-linecap:round;stroke-linejoin:round"></path><path d="M200.45,159.23s9.69,10.73,9.69,12.11a15.38,15.38,0,0,0,2.43,6.58c1.38,2.08,11.42,9.69,14.88,9.69s9.34-8,10.38-11.08-1.38-9-1.38-9,1-1.73,1.73-6.58.69-9.34-2.08-11.07-8-2.43-13.5-2.43-9.34-2.07-12.8.69S200.45,159.23,200.45,159.23Z" style="fill:#fff;stroke:#2e353a;stroke-linecap:round;stroke-linejoin:round"></path><path d="M220.18,149.54s-6.92-1.39-8.31,2.42,1,6.92-6.92,8-19-5.19-19-12.46,9-12.46,11.42-10.73,4.5,4.16,5.88-.69,8.31-8,11.77-8,4.15,4.85,5.19,4.85,5.19-2.43,9-2.43,8.65,3.46,10.73,11.08,3.11,18.34,1,20.42-3.11,1.38-3.11,1.38.35-8.3-1-10.38-5.19,4.85-5.19,4.85a16.07,16.07,0,0,1-6.92-3.12C221.91,152.31,221.56,149.54,220.18,149.54Z" style="fill:#2e353a;stroke:#2e353a;stroke-linecap:round;stroke-linejoin:round"></path><path d="M218.9,164.83c.55,1.09.61,2.17.13,2.41s-1.31-.45-1.86-1.54-.61-2.17-.14-2.41S218.34,163.74,218.9,164.83Z" style="fill:#2e353a"></path><path d="M212.4,167.73c.55,1.09.61,2.17.14,2.41s-1.31-.45-1.87-1.54-.61-2.16-.13-2.41S211.85,166.64,212.4,167.73Z" style="fill:#2e353a"></path><line x1="206.84" y1="163.47" x2="212.37" y2="164.99" style="fill:none;stroke:#2e353a;stroke-linecap:round;stroke-linejoin:round"></line><path d="M213.75,162s-1.94-5.12,4.7-5.67" style="fill:none;stroke:#2e353a;stroke-linecap:round;stroke-linejoin:round"></path><path d="M187.16,220.45s4-2.33,6.14-2.33,2.31,2.12,1.54,2.33-6.91,3.61-8.07,3.4-1-2.13-.57-3" style="fill:#fff;stroke:#2e353a;stroke-linecap:round;stroke-linejoin:round"></path><path d="M180.78,215.87s5.22-2.73,7.95-2.73,3,2.48,2,2.73-8.95,4.22-10.44,4-1.24-2.49-.75-3.48" style="fill:#fff;stroke:#2e353a;stroke-linecap:round;stroke-linejoin:round"></path><path d="M184.53,218.12s5.22-2.73,7.95-2.73,3,2.48,2,2.73-8.95,4.22-10.44,4-1.24-2.49-.75-3.48" style="fill:#fff;stroke:#2e353a;stroke-linecap:round;stroke-linejoin:round"></path><path d="M181.5,206.37a55.27,55.27,0,0,1-3.25,6,3.84,3.84,0,0,0,.75,5.25c1.5,1,9.5-3.75,9.5-3.75Z" style="fill:#fff;stroke:#2e353a;stroke-linecap:round;stroke-linejoin:round"></path><path d="M180.5,201.87s2.75-2.75,5-2.75,4.25,5.75,2.5,7.25-4.25-2.5-4.25-2.5Z" style="fill:#fff;stroke:#2e353a;stroke-linecap:round;stroke-linejoin:round"></path><path d="M202.25,220.87l-15.54-16.94a5.46,5.46,0,0,0-3-1.66L177,200.92a.85.85,0,0,0-.78,1.44l17,17.26Z" style="fill:#2e353a"></path><path d="M250.75,235.37s-.5,4-12-.5-32.25-15.25-32.25-15.25-.5-6.25-1.5-8.5-6.75-4.75-8.25-6.5-1.75-3.75-3-4.75-2.75.5-2.75,3,.25,4,2.25,5a21.49,21.49,0,0,1,3,1.75,20,20,0,0,1-4.75,4.5c-2.75,1.75-6.75,4.75-6,6.25s5.5,1,5.5,1,0,3.5,2.25,4.75a8.22,8.22,0,0,0,5.25.5s-1.25,3-3.75,2.25,0,2.5,2.5,2.5,4.5-6.75,4.5-6.75,7,5.25,16.75,12,26.75,14.5,37,17,9.75-13.75,9.75-13.75Z" style="fill:#fff;stroke:#2e353a;stroke-linecap:round;stroke-linejoin:round"></path><path d="M259.5,189.87s-6-1.75-7.75,5.25,0,21.5.5,28.25-3,9.5-3,10.75,3,5,7.75,7.25,11.25,1.25,11.25,1.25,3.75-20.75-.25-36.25S261.75,190.87,259.5,189.87Z" style="fill:#fff;stroke:#2e353a;stroke-linecap:round;stroke-linejoin:round"></path><path d="M179.5,213.62s5.25-2.75,8-2.75,3,2.5,2,2.75-9,4.25-10.5,4-1.25-2.5-.75-3.5" style="fill:#fff;stroke:#2e353a;stroke-linecap:round;stroke-linejoin:round"></path><path d="M205,204.62s4.75,2.75,5.25,7.5" style="fill:none;stroke:#2e353a;stroke-linecap:round;stroke-linejoin:round"></path><path d="M210.25,205.12a9.23,9.23,0,0,1,3.5,6.5" style="fill:none;stroke:#2e353a;stroke-linecap:round;stroke-linejoin:round"></path><path d="M181.25,196.87a2.52,2.52,0,0,0-2.25,2.5" style="fill:none;stroke:#2e353a;stroke-linecap:round;stroke-linejoin:round"></path><path d="M177.75,196.37a2.81,2.81,0,0,0-.75,3.5" style="fill:none;stroke:#2e353a;stroke-linecap:round;stroke-linejoin:round"></path><polyline points="235.78 276.05 240.23 279.29 229.33 323.2" style="fill:none;stroke:#fff;stroke-linecap:round;stroke-linejoin:round;stroke-width:0.75px"></polyline><path d="M263.31,267.14s-4.05,6.48-2.43,10.13a7.41,7.41,0,0,0,5.67,4.05" style="fill:none;stroke:#fff;stroke-linecap:round;stroke-linejoin:round;stroke-width:0.75px"></path><path d="M262.51,296.62c-7.44,14.23-28.37,49.41-28.37,51.9,0,2.84,5.26-.4,5.67,1.22s-.41,3.64,0,5.26,4.05,1.21,7.28,6.88,4.46,30,8.1,36,4.05,8.09,4.46,10.12l.4,2" style="fill:none;stroke:#fff;stroke-linecap:round;stroke-linejoin:round;stroke-width:0.75px"></path><path d="M269,270.73a67.36,67.36,0,0,1-4,20.71c-.27.71-.61,1.48-1,2.3" style="fill:none;stroke:#fff;stroke-linecap:round;stroke-linejoin:round;stroke-width:0.75px"></path><path d="M269,265.12s0,.83,0,2.28" style="fill:none;stroke:#fff;stroke-linecap:round;stroke-linejoin:round;stroke-width:0.75px"></path><path d="M242.41,387.05l1.45,3.58" style="fill:none;stroke:#fff;stroke-linecap:round;stroke-linejoin:round;stroke-width:0.75px"></path><path d="M226.45,353.38s.81,4.86,3.64,7.29c1.9,1.63,7.46,14.57,10.9,22.91" style="fill:none;stroke:#fff;stroke-linecap:round;stroke-linejoin:round;stroke-width:0.75px"></path><path d="M211.61,149.63s-2.38,3.34-6.19,0,1.66-11.89,9.52-11.89,5.71,4.76,13.08,4.76,8.57-5,8.57-5" style="fill:none;stroke:#fff;stroke-linecap:round;stroke-linejoin:round;stroke-width:0.75px"></path><path d="M220.18,149.54a24.51,24.51,0,0,0,9.75.33c5-1,9.75-8.56,9.75-9.28" style="fill:none;stroke:#fff;stroke-linecap:round;stroke-linejoin:round;stroke-width:0.75px"></path><path d="M199.71,142.73s-7.62,2.86-6.19,8.57,8.33,9,12.85,5.95,4.76-6.43,4.76-6.43" style="fill:none;stroke:#fff;stroke-linecap:round;stroke-linejoin:round;stroke-width:0.75px"></path><path d="M213.75,167.2a7.14,7.14,0,0,1,.69,3.59c-.14,2.08-1,4.43.14,5s3-1,3-1" style="fill:none;stroke:#2e353a;stroke-linecap:round;stroke-linejoin:round"></path><path d="M221.76,175.08a8.9,8.9,0,0,0,2.77-9.26" style="fill:none;stroke:#2e353a;stroke-linecap:round;stroke-linejoin:round"></path><path d="M224.8,167.75s-2.21-2.9-3.17-1.38,2.62,4.7,2.62,4.7A5.42,5.42,0,0,0,224.8,167.75Z" style="fill:#407BFF;stroke:#2e353a;stroke-linecap:round;stroke-linejoin:round"></path></g></svg>