<svg width="402" height="338" viewBox="0 0 402 338" fill="none" xmlns="http://www.w3.org/2000/svg">
<g opacity="0.71">
<path d="M327.454 35.8669C300.754 18.1244 268.479 11.4767 233.731 26.5092C199.383 41.3689 181.758 76.4628 152.057 97.2882C120.464 119.432 79.3047 121.842 45.0383 138.975C20.8299 151.107 4.49699 173.533 0.995773 200.442C-5.85206 253.133 23.1307 306.433 72.1659 327.595C102.749 340.791 138.098 340.045 168.499 326.686C191.835 316.437 212.014 299.995 235.259 289.328C275.618 270.776 322.88 271.685 361.339 248.104C402.044 223.168 406.6 178.753 396.506 137.766C387.33 100.517 362.075 58.884 327.454 35.8669Z" fill="#407BFF"/>
<path d="M327.454 35.8669C300.754 18.1244 268.479 11.4767 233.731 26.5092C199.383 41.3689 181.758 76.4628 152.057 97.2882C120.464 119.432 79.3047 121.842 45.0383 138.975C20.8299 151.107 4.49699 173.533 0.995773 200.442C-5.85206 253.133 23.1307 306.433 72.1659 327.595C102.749 340.791 138.098 340.045 168.499 326.686C191.835 316.437 212.014 299.995 235.259 289.328C275.618 270.776 322.88 271.685 361.339 248.104C402.044 223.168 406.6 178.753 396.506 137.766C387.33 100.517 362.075 58.884 327.454 35.8669Z" fill="#263238"/>
</g>
<g opacity="0.79">
<path d="M182.45 336.326C156.195 336.326 132.087 331.833 110.788 322.985C74.2939 307.807 43.0376 277.905 27.1867 242.957C26.0954 240.565 25.0314 238.001 24.022 235.354C13.3819 207.608 10.6446 175.697 16.1101 143.059C24.1129 95.2421 48.385 53.7459 82.6787 29.2283C109.051 10.3763 142.136 1.28156e-06 175.875 1.28156e-06C186.155 -0.00128381 196.413 0.9639 206.512 2.88282C235.486 8.40291 259.976 23.1899 275.482 44.5063C278.21 48.3167 280.875 52.209 283.421 55.983C289.068 64.3405 294.398 72.2432 301.327 79.6276C312.413 91.4499 324.972 101.908 334.693 109.702C344.415 117.495 354.409 126.317 363.23 139.185C370.65 150.282 376.207 162.517 379.682 175.406C397.297 239.056 349.398 293.511 292.979 314.427C266.088 324.431 225.073 336.298 182.459 336.298L182.45 336.326Z" fill="#575757"/>
<path d="M167.726 31.1653C167.726 31.6941 167.569 32.2111 167.276 32.6508C166.982 33.0904 166.564 33.4331 166.076 33.6355C165.587 33.8378 165.05 33.8908 164.531 33.7876C164.012 33.6845 163.536 33.4298 163.162 33.0559C162.788 32.682 162.533 32.2056 162.43 31.687C162.327 31.1683 162.38 30.6307 162.582 30.1422C162.785 29.6536 163.127 29.2361 163.567 28.9423C164.007 28.6485 164.524 28.4917 165.053 28.4917C165.762 28.4917 166.442 28.7734 166.943 29.2748C167.445 29.7762 167.726 30.4563 167.726 31.1653V31.1653Z" fill="white"/>
<path d="M331.319 135.401C331.319 135.932 331.161 136.451 330.866 136.891C330.57 137.332 330.149 137.675 329.658 137.876C329.167 138.077 328.627 138.127 328.107 138.02C327.587 137.913 327.111 137.654 326.739 137.275C326.367 136.897 326.116 136.416 326.018 135.895C325.92 135.373 325.98 134.834 326.189 134.346C326.398 133.859 326.748 133.444 327.194 133.156C327.639 132.868 328.161 132.719 328.691 132.728C329.393 132.737 330.063 133.024 330.555 133.524C331.047 134.025 331.322 134.699 331.319 135.401V135.401Z" fill="white"/>
<path d="M45.7293 155.827C47.2059 155.827 48.403 154.63 48.403 153.153C48.403 151.677 47.2059 150.479 45.7293 150.479C44.2527 150.479 43.0557 151.677 43.0557 153.153C43.0557 154.63 44.2527 155.827 45.7293 155.827Z" fill="white"/>
<path d="M89.5262 68.2328C91.0028 68.2328 92.1998 67.0358 92.1998 65.5592C92.1998 64.0825 91.0028 62.8855 89.5262 62.8855C88.0496 62.8855 86.8525 64.0825 86.8525 65.5592C86.8525 67.0358 88.0496 68.2328 89.5262 68.2328Z" fill="white"/>
<path d="M198.164 20.2161C198.162 20.4801 198.082 20.7376 197.934 20.9563C197.786 21.1749 197.577 21.3448 197.332 21.4446C197.088 21.5444 196.819 21.5696 196.561 21.517C196.302 21.4644 196.065 21.3364 195.879 21.149C195.693 20.9617 195.566 20.7235 195.515 20.4645C195.464 20.2054 195.491 19.9371 195.593 19.6933C195.694 19.4496 195.866 19.2413 196.085 19.0948C196.305 18.9483 196.563 18.8702 196.827 18.8701C197.004 18.8689 197.179 18.903 197.342 18.9703C197.506 19.0376 197.654 19.1368 197.778 19.2622C197.903 19.3875 198.001 19.5365 198.067 19.7003C198.133 19.8641 198.166 20.0394 198.164 20.2161V20.2161Z" fill="white"/>
<path d="M239.469 65.1589C239.469 65.4237 239.39 65.6825 239.243 65.9025C239.096 66.1226 238.887 66.2939 238.642 66.3948C238.397 66.4957 238.128 66.5216 237.868 66.4693C237.608 66.417 237.37 66.2888 237.184 66.1009C236.997 65.913 236.871 65.674 236.82 65.4141C236.769 65.1542 236.797 64.8851 236.9 64.641C237.002 64.3969 237.175 64.1887 237.396 64.0429C237.617 63.8971 237.877 63.8203 238.141 63.8221C238.316 63.822 238.49 63.8567 238.652 63.924C238.813 63.9913 238.96 64.0899 239.083 64.2142C239.207 64.3384 239.304 64.4859 239.371 64.648C239.437 64.8101 239.47 64.9838 239.469 65.1589V65.1589Z" fill="white"/>
<path d="M57.1698 97.6702C57.9081 97.6702 58.5067 97.0717 58.5067 96.3334C58.5067 95.5951 57.9081 94.9966 57.1698 94.9966C56.4315 94.9966 55.833 95.5951 55.833 96.3334C55.833 97.0717 56.4315 97.6702 57.1698 97.6702Z" fill="white"/>
<path d="M102.549 61.2121C102.551 61.4769 102.474 61.7363 102.328 61.9573C102.182 62.1783 101.974 62.3511 101.73 62.4537C101.486 62.5562 101.217 62.584 100.957 62.5335C100.697 62.4829 100.458 62.3563 100.27 62.1697C100.082 61.9831 99.9542 61.7449 99.9019 61.4854C99.8495 61.2258 99.8755 60.9566 99.9764 60.7118C100.077 60.467 100.249 60.2576 100.469 60.1103C100.689 59.963 100.948 59.8844 101.212 59.8844C101.565 59.8844 101.904 60.024 102.154 60.2727C102.405 60.5215 102.547 60.8592 102.549 61.2121V61.2121Z" fill="white"/>
<path d="M164.107 17.7153C164.845 17.7153 165.444 17.1168 165.444 16.3785C165.444 15.6401 164.845 15.0416 164.107 15.0416C163.369 15.0416 162.77 15.6401 162.77 16.3785C162.77 17.1168 163.369 17.7153 164.107 17.7153Z" fill="white"/>
<path d="M198.683 91.359C199.421 91.359 200.019 90.7604 200.019 90.0221C200.019 89.2838 199.421 88.6853 198.683 88.6853C197.944 88.6853 197.346 89.2838 197.346 90.0221C197.346 90.7604 197.944 91.359 198.683 91.359Z" fill="white"/>
<path d="M27.5776 207.517C28.3159 207.517 28.9144 206.919 28.9144 206.181C28.9144 205.442 28.3159 204.844 27.5776 204.844C26.8392 204.844 26.2407 205.442 26.2407 206.181C26.2407 206.919 26.8392 207.517 27.5776 207.517Z" fill="white"/>
<path d="M49.8217 227.488C50.56 227.488 51.1585 226.889 51.1585 226.151C51.1585 225.413 50.56 224.814 49.8217 224.814C49.0834 224.814 48.4849 225.413 48.4849 226.151C48.4849 226.889 49.0834 227.488 49.8217 227.488Z" fill="white"/>
<path d="M40.9916 235.627C41.7299 235.627 42.3284 235.029 42.3284 234.29C42.3284 233.552 41.7299 232.953 40.9916 232.953C40.2533 232.953 39.6548 233.552 39.6548 234.29C39.6548 235.029 40.2533 235.627 40.9916 235.627Z" fill="white"/>
<path d="M131.75 22.6988C132.488 22.6988 133.087 22.1003 133.087 21.362C133.087 20.6237 132.488 20.0251 131.75 20.0251C131.012 20.0251 130.413 20.6237 130.413 21.362C130.413 22.1003 131.012 22.6988 131.75 22.6988Z" fill="white"/>
<path d="M155.422 86.6209C156.16 86.6209 156.759 86.0224 156.759 85.2841C156.759 84.5458 156.16 83.9473 155.422 83.9473C154.683 83.9473 154.085 84.5458 154.085 85.2841C154.085 86.0224 154.683 86.6209 155.422 86.6209Z" fill="white"/>
<path d="M175.236 82.3535C178.766 81.7817 181.164 78.4566 180.592 74.9266C180.02 71.3965 176.695 68.9984 173.165 69.5701C169.635 70.1419 167.237 73.467 167.809 76.997C168.38 80.527 171.706 82.9252 175.236 82.3535Z" fill="white"/>
<path d="M35.8622 132.009C39.4382 132.009 42.3372 129.11 42.3372 125.534C42.3372 121.958 39.4382 119.059 35.8622 119.059C32.2861 119.059 29.3872 121.958 29.3872 125.534C29.3872 129.11 32.2861 132.009 35.8622 132.009Z" fill="white"/>
<path d="M80.3685 104.227C82.5935 104.227 84.3972 102.423 84.3972 100.198C84.3972 97.9734 82.5935 96.1697 80.3685 96.1697C78.1435 96.1697 76.3398 97.9734 76.3398 100.198C76.3398 102.423 78.1435 104.227 80.3685 104.227Z" fill="white"/>
<path d="M232.294 138.166C234.519 138.166 236.322 136.362 236.322 134.137C236.322 131.912 234.519 130.109 232.294 130.109C230.069 130.109 228.265 131.912 228.265 134.137C228.265 136.362 230.069 138.166 232.294 138.166Z" fill="white"/>
<path d="M238.369 30.0467C235.141 29.6011 234.786 29.2465 234.34 26.0181C233.904 29.2465 233.549 29.6011 230.321 30.0467C233.549 30.4833 233.904 30.8379 234.34 34.0663C234.786 30.8379 235.141 30.4833 238.369 30.0467Z" fill="white"/>
</g>
<path d="M266.588 173.151H247.582L252.756 131.582V124.134H261.414V131.582L266.588 173.151Z" fill="white" stroke="#263238" stroke-width="1.07731" stroke-linecap="round" stroke-linejoin="round"/>
<path d="M299.982 173.151H281.984L286.659 131.764V124.134H295.307V131.582L299.982 173.151Z" fill="white" stroke="#263238" stroke-width="1.07731" stroke-linecap="round" stroke-linejoin="round"/>
<path d="M258.203 34.7211C258.128 34.5114 257.99 34.3299 257.808 34.2017C257.625 34.0735 257.408 34.0046 257.185 34.0046C256.962 34.0046 256.745 34.0735 256.562 34.2017C256.38 34.3299 256.242 34.5114 256.166 34.7211L254.73 38.8771C253.175 43.3513 252.382 48.0545 252.383 52.791V128.908H261.987V52.791C261.988 48.0545 261.195 43.3513 259.64 38.8771L258.203 34.7211Z" fill="white" stroke="#263238" stroke-width="1.07731" stroke-linecap="round" stroke-linejoin="round"/>
<path d="M263.469 128.29H250.91V134.21H263.469V128.29Z" fill="#263238" stroke="white" stroke-width="1.07731" stroke-linecap="round" stroke-linejoin="round"/>
<path d="M292.151 34.7211C292.078 34.5103 291.941 34.3275 291.76 34.1982C291.578 34.0688 291.36 33.9993 291.137 33.9993C290.914 33.9993 290.697 34.0688 290.515 34.1982C290.333 34.3275 290.196 34.5103 290.123 34.7211L288.677 38.8771C287.123 43.3513 286.33 48.0545 286.331 52.791V128.908H295.953V52.791C295.952 48.0554 295.162 43.353 293.615 38.8771L292.151 34.7211Z" fill="white" stroke="#263238" stroke-width="1.07731" stroke-linecap="round" stroke-linejoin="round"/>
<path d="M275.209 13.4683C275.111 13.3163 274.977 13.1913 274.818 13.1047C274.659 13.0181 274.481 12.9728 274.3 12.9728C274.119 12.9728 273.941 13.0181 273.782 13.1047C273.623 13.1913 273.488 13.3163 273.39 13.4683L270.235 18.7702C266.675 24.7347 264.79 31.5491 264.778 38.4952V111.157H283.712V38.4952C283.701 31.5491 281.816 24.7347 278.256 18.7702L275.209 13.4683Z" fill="#263238" stroke="white" stroke-width="1.07731" stroke-linecap="round" stroke-linejoin="round"/>
<path d="M297.417 128.29H284.858V134.21H297.417V128.29Z" fill="#263238" stroke="white" stroke-width="1.07731" stroke-linecap="round" stroke-linejoin="round"/>
<path d="M268.471 59.3207C268.471 59.3207 263.369 85.0478 253.402 95.0149C250.138 98.1341 247.19 101.567 244.599 105.264C243.531 106.883 242.964 108.781 242.971 110.72V120.551H270.553V56.547L268.471 59.3207Z" fill="white" stroke="#263238" stroke-width="1.07731" stroke-linecap="round" stroke-linejoin="round"/>
<path d="M243.208 116.568H268.007" stroke="#263238" stroke-width="1.07731" stroke-linecap="round" stroke-linejoin="round"/>
<path d="M280.166 59.6752C280.166 59.6752 285.267 85.3932 295.234 95.3603C298.497 98.4739 301.445 101.901 304.037 105.591C305.104 107.211 305.67 109.108 305.665 111.048V120.878H278.083V56.8925L280.166 59.6752Z" fill="white" stroke="#263238" stroke-width="1.07731" stroke-linecap="round" stroke-linejoin="round"/>
<path d="M280.52 116.568H305.31" stroke="#263238" stroke-width="1.07731" stroke-linecap="round" stroke-linejoin="round"/>
<path d="M274.909 41.0507C274.561 41.0144 274.211 41.0144 273.863 41.0507C272.831 41.1878 271.874 41.6658 271.144 42.4088C270.414 43.1519 269.953 44.1174 269.834 45.1521V45.3795C268.925 49.8356 267.797 55.6194 267.797 60.6757V121.997H281.075V60.703C281.075 55.6467 279.947 49.8628 279.029 45.4068V45.1794C278.912 44.1261 278.44 43.1439 277.692 42.3937C276.943 41.6436 275.962 41.17 274.909 41.0507V41.0507Z" fill="white" stroke="#263238" stroke-width="1.07731" stroke-linecap="round" stroke-linejoin="round"/>
<path d="M269.58 109.383H270.253C271.051 109.383 271.817 109.701 272.381 110.265C272.946 110.83 273.263 111.595 273.263 112.394V121.488H266.561V112.394C266.561 111.998 266.639 111.605 266.791 111.24C266.942 110.874 267.165 110.542 267.445 110.262C267.726 109.982 268.059 109.761 268.425 109.61C268.791 109.459 269.184 109.382 269.58 109.383Z" fill="white" stroke="#263238" stroke-width="1.07731" stroke-linecap="round" stroke-linejoin="round"/>
<path d="M274.264 120.878H265.488V126.799H274.264V120.878Z" fill="#263238" stroke="#263238" stroke-width="1.07731" stroke-linecap="round" stroke-linejoin="round"/>
<path d="M278.574 109.383H279.247C280.045 109.383 280.811 109.701 281.375 110.265C281.94 110.83 282.257 111.595 282.257 112.394V121.488H275.555V112.394C275.555 111.998 275.633 111.605 275.785 111.24C275.937 110.874 276.159 110.542 276.44 110.262C276.72 109.982 277.053 109.761 277.419 109.61C277.785 109.459 278.178 109.382 278.574 109.383V109.383Z" fill="white" stroke="#263238" stroke-width="1.07731" stroke-linecap="round" stroke-linejoin="round"/>
<path d="M283.303 120.878H274.527V126.799H283.303V120.878Z" fill="#263238" stroke="#263238" stroke-width="1.07731" stroke-linecap="round" stroke-linejoin="round"/>
<path d="M274.909 41.0507C274.561 41.0144 274.211 41.0144 273.863 41.0507C272.911 41.1748 272.021 41.5914 271.315 42.243C270.61 42.8945 270.124 43.749 269.925 44.6883H278.847C278.649 43.7484 278.163 42.8932 277.458 42.2415C276.752 41.5897 275.861 41.1735 274.909 41.0507Z" fill="#263238" stroke="#263238" stroke-width="1.07731" stroke-linecap="round" stroke-linejoin="round"/>
<path d="M271.708 52.0363C270.745 52.6924 269.962 53.5801 269.431 54.6177C268.9 55.6553 268.639 56.8096 268.671 57.9747C268.671 58.1293 268.671 58.2839 268.671 58.4385C268.706 57.3581 268.996 56.3013 269.516 55.3534C270.035 54.4056 270.771 53.5932 271.662 52.982L271.708 52.0363Z" fill="#263238"/>
<path d="M276.573 51.6725C275.92 51.3726 275.21 51.2174 274.491 51.2174C273.772 51.2174 273.062 51.3726 272.408 51.6725V52.5819C273.063 52.2884 273.773 52.1366 274.491 52.1366C275.209 52.1366 275.918 52.2884 276.573 52.5819V51.6725Z" fill="#263238"/>
<path d="M277.273 52.0363V52.9457C278.167 53.5553 278.903 54.3673 279.423 55.3155C279.943 56.2636 280.232 57.3212 280.265 58.4021C280.265 58.2475 280.265 58.0929 280.265 57.9383C280.296 56.7835 280.038 55.6392 279.516 54.6088C278.994 53.5784 278.223 52.6943 277.273 52.0363V52.0363Z" fill="#263238"/>
<path d="M278.565 43.8517C278.261 43.1041 277.765 42.4506 277.125 41.9584C276.486 41.4661 275.727 41.1529 274.927 41.0507C274.579 41.0144 274.229 41.0144 273.881 41.0507C273.089 41.1462 272.335 41.4486 271.697 41.9275C271.058 42.4064 270.557 43.0449 270.244 43.7789" stroke="white" stroke-width="0.538656" stroke-linecap="round" stroke-linejoin="round"/>
<path d="M381.507 176.648C381.243 175.738 380.97 174.765 380.688 173.829C376.587 175.114 372.812 177.27 369.623 180.151C366.433 183.031 363.904 186.567 362.209 190.516C362.136 190.68 362.082 190.844 362.009 191.007C361.366 190.795 360.706 190.64 360.035 190.543C359.587 186.569 357.858 182.849 355.109 179.943C352.361 177.038 348.742 175.105 344.798 174.437C340.855 173.768 336.802 174.401 333.249 176.238C329.697 178.076 326.838 181.019 325.105 184.623C324.191 183.587 323.047 182.78 321.765 182.265C320.482 181.75 319.098 181.543 317.721 181.659C318.13 179.103 317.811 176.484 316.799 174.102C315.787 171.72 314.124 169.671 312.001 168.192C309.877 166.712 307.38 165.861 304.795 165.737C302.21 165.613 299.642 166.221 297.386 167.49C296.558 166.175 295.421 165.081 294.075 164.304C292.729 163.526 291.214 163.088 289.66 163.027C288.107 162.966 286.562 163.284 285.159 163.954C283.756 164.624 282.538 165.625 281.608 166.872C280.428 168.451 279.767 170.357 279.717 172.328C278.621 171.775 277.429 171.438 276.206 171.337C275.968 169.435 275.149 167.654 273.86 166.235C272.879 165.121 271.651 164.251 270.274 163.694C268.897 163.138 267.409 162.911 265.929 163.031C264.449 163.151 263.017 163.615 261.748 164.386C260.479 165.157 259.407 166.214 258.618 167.472C256.363 166.2 253.794 165.59 251.207 165.713C248.621 165.836 246.121 166.686 243.996 168.166C241.871 169.646 240.207 171.696 239.195 174.079C238.183 176.463 237.864 179.084 238.275 181.64C236.899 181.523 235.516 181.73 234.235 182.245C232.954 182.76 231.811 183.568 230.9 184.605C229.169 180.996 226.31 178.049 222.756 176.209C219.202 174.368 215.146 173.735 211.2 174.403C207.254 175.072 203.633 177.007 200.883 179.915C198.134 182.824 196.406 186.548 195.96 190.525C195.291 190.624 194.63 190.779 193.987 190.989L193.796 190.498C191.228 184.541 186.794 179.581 181.161 176.364C175.528 173.148 169.002 171.85 162.567 172.666C156.132 173.482 150.136 176.367 145.484 180.888C140.832 185.408 137.776 191.319 136.776 197.728C129.761 201.826 124.561 208.434 122.226 216.216C121.571 216.18 120.916 216.161 120.261 216.161C112.355 216.161 104.616 218.431 97.9624 222.702C91.3091 226.972 86.0222 233.064 82.7302 240.252C74.3882 240.799 66.4607 244.087 60.1801 249.605C53.8995 255.122 49.6176 262.56 48 270.762C52.0564 276.142 56.4485 281.26 61.15 286.086H284.864C314.792 286.086 343.821 275.009 365.583 254.466C371.821 248.582 376.832 242.425 379.178 236.023C382.812 226.19 384.809 215.828 385.09 205.349C385.315 195.657 384.108 185.986 381.507 176.648V176.648Z" fill="white"/>
<path opacity="0.5" d="M382.325 205.221C376.703 205.221 371.189 206.762 366.383 209.677C363.443 205.382 358.943 202.401 353.841 201.369C348.739 200.336 343.435 201.333 339.055 204.148C336.756 200.168 333.448 196.863 329.464 194.569C325.481 192.275 320.963 191.071 316.366 191.08C315.52 191.08 314.674 191.126 313.847 191.207C312.293 188.864 309.887 187.219 307.14 186.619C304.393 186.02 301.521 186.514 299.133 187.997C299.133 187.77 299.133 187.542 299.133 187.315C299.134 185.282 298.563 183.29 297.485 181.567C296.407 179.843 294.866 178.458 293.038 177.569C291.21 176.68 289.168 176.323 287.147 176.54C285.126 176.757 283.206 177.538 281.608 178.794C280.418 177.774 278.998 177.059 277.47 176.712C275.941 176.364 274.351 176.395 272.837 176.8C271.323 177.206 269.931 177.975 268.782 179.04C267.632 180.106 266.759 181.435 266.239 182.914C264.869 181.96 263.275 181.379 261.613 181.226C259.951 181.073 258.277 181.354 256.756 182.041C255.235 182.728 253.918 183.799 252.935 185.147C251.951 186.495 251.333 188.076 251.143 189.734C249.361 188.986 247.433 188.646 245.502 188.741C243.572 188.835 241.686 189.361 239.985 190.28C238.284 191.198 236.811 192.486 235.673 194.049C234.535 195.612 233.762 197.409 233.41 199.31C231.963 198.316 230.295 197.691 228.551 197.491C226.807 197.291 225.04 197.523 223.406 198.164H223.052C221.691 198.165 220.335 198.33 219.014 198.655C217.592 197.856 215.989 197.437 214.358 197.437C212.361 197.437 210.413 198.058 208.784 199.213C207.155 200.368 205.925 202 205.264 203.884C203.96 202.979 202.453 202.409 200.877 202.223C199.3 202.038 197.703 202.243 196.224 202.82C189.376 201.157 182.166 201.871 175.777 204.845C169.389 207.82 164.201 212.878 161.066 219.19C157.973 219.375 154.988 220.393 152.427 222.136C149.865 223.88 147.823 226.284 146.516 229.093C141.138 225.083 134.606 222.919 127.897 222.926C121.188 222.933 114.661 225.11 109.291 229.132C103.921 233.153 99.9959 238.804 98.1017 245.24C96.2075 251.676 96.4459 258.552 98.7812 264.842C93.4563 261.677 87.3036 260.185 81.1206 260.559C75.4456 260.906 69.9731 262.797 65.2935 266.026C60.6139 269.255 56.9047 273.701 54.5659 278.883C70.9045 297.858 91.4091 312.797 114.478 322.535C135.603 331.32 159.539 335.776 185.611 335.776C228.026 335.776 268.867 323.953 295.649 313.95C342.757 296.48 383.862 255.43 385.135 205.294C384.198 205.267 383.271 205.221 382.325 205.221Z" fill="#575757"/>
<path d="M370.512 237.642C367.571 233.346 363.072 230.365 357.97 229.333C352.867 228.3 347.563 229.298 343.184 232.112C340.891 228.138 337.592 224.837 333.619 222.543C329.645 220.249 325.137 219.042 320.549 219.044C319.694 219.044 318.857 219.09 318.03 219.172C316.476 216.829 314.071 215.183 311.325 214.582C308.578 213.981 305.706 214.473 303.316 215.952C303.316 215.734 303.316 215.507 303.316 215.27C303.315 213.238 302.743 211.247 301.664 209.525C300.586 207.803 299.045 206.419 297.217 205.531C295.389 204.643 293.348 204.288 291.328 204.505C289.308 204.722 287.389 205.502 285.791 206.758C284.602 205.738 283.181 205.023 281.653 204.676C280.124 204.328 278.534 204.359 277.02 204.765C275.507 205.171 274.114 205.939 272.965 207.005C271.815 208.07 270.942 209.399 270.422 210.878C269.052 209.925 267.458 209.343 265.796 209.19C264.134 209.037 262.46 209.318 260.939 210.005C259.418 210.693 258.101 211.763 257.118 213.111C256.134 214.46 255.517 216.04 255.326 217.698C253.373 216.879 251.249 216.55 249.14 216.742C247.031 216.934 245.001 217.641 243.228 218.799C241.456 219.958 239.994 221.534 238.972 223.389C237.95 225.244 237.398 227.321 237.365 229.439C235.317 227.934 232.96 226.904 230.465 226.422C227.969 225.94 225.398 226.019 222.937 226.653C220.476 227.286 218.186 228.459 216.234 230.086C214.281 231.712 212.715 233.753 211.647 236.059C207.594 233.029 202.861 231.035 197.86 230.251C192.86 229.467 187.744 229.916 182.957 231.56C178.17 233.204 173.857 235.993 170.394 239.684C166.931 243.375 164.422 247.856 163.085 252.738C160.247 253.374 157.705 254.945 155.868 257.2C154.03 259.454 153.004 262.261 152.954 265.169C150.907 263.665 148.55 262.635 146.056 262.153C143.561 261.671 140.991 261.75 138.53 262.383C136.07 263.017 133.781 264.19 131.829 265.817C129.877 267.443 128.312 269.484 127.245 271.79C122.624 268.339 117.133 266.242 111.388 265.734C105.642 265.225 99.8684 266.326 94.7126 268.911C89.5568 271.497 85.2222 275.467 82.1938 280.376C79.1653 285.285 77.5625 290.94 77.5646 296.708C77.5646 296.88 77.5646 297.044 77.5646 297.217H77.4282V300.764C88.7344 309.666 101.198 316.99 114.477 322.535C135.603 331.32 159.539 335.776 185.611 335.776C228.026 335.776 268.867 323.953 295.649 313.95C333.444 299.927 367.383 270.726 379.969 233.84C376.626 234.569 373.429 235.854 370.512 237.642V237.642Z" fill="#DADADA"/>
<path opacity="0.5" d="M188.985 126.135C181.32 121.116 172.365 118.425 163.203 118.386H163.058C151.798 118.383 140.714 121.174 130.799 126.509C120.884 131.844 112.447 139.557 106.246 148.955C100.045 158.353 96.2731 169.143 95.2685 180.357C94.2638 191.572 96.0579 202.86 100.49 213.211C104.922 223.561 111.853 232.65 120.662 239.663C129.472 246.675 139.883 251.392 150.964 253.39C162.045 255.388 173.448 254.605 184.152 251.111C194.856 247.618 204.525 241.522 212.293 233.372C223.305 216.027 227.033 195.041 222.67 174.965C218.306 154.889 206.203 137.343 188.985 126.135V126.135Z" fill="white" stroke="#263238" stroke-width="1.07731" stroke-miterlimit="10"/>
<path d="M183.174 126.135C183.055 126.053 182.937 125.989 182.828 125.907C200.716 141.722 212.193 166.058 212.193 193.358C212.251 209.34 208.178 225.065 200.371 239.01C202.514 237.253 204.552 235.37 206.473 233.372C217.485 216.029 221.215 195.043 216.853 174.967C212.491 154.891 200.39 137.345 183.174 126.135V126.135Z" fill="white"/>
<path d="M212.293 233.372C204.524 241.518 194.856 247.609 184.155 251.099C173.453 254.589 162.053 255.369 150.976 253.37C139.899 251.371 129.491 246.654 120.685 239.643C111.879 232.632 104.95 223.546 100.519 213.198C96.0885 202.851 94.2945 191.566 95.298 180.354C96.3014 169.143 100.071 158.356 106.269 148.96C112.467 139.563 120.899 131.852 130.81 126.516C140.721 121.18 151.801 118.387 163.058 118.387H163.203C172.365 118.425 181.319 121.116 188.985 126.135C202.609 135.017 213.13 147.922 219.086 163.057C211.794 143.865 197.591 128.094 179.266 118.838C160.941 109.582 139.818 107.51 120.045 113.03C100.271 118.55 83.2747 131.263 72.3936 148.672C61.5124 166.081 57.5322 186.929 61.2345 207.122C64.9368 227.315 76.0542 245.395 92.4036 257.811C108.753 270.228 129.154 276.084 149.6 274.23C170.045 272.376 189.06 262.946 202.909 247.791C216.758 232.636 224.442 212.851 224.452 192.321C224.452 192.167 224.452 192.012 224.452 191.857C224.411 206.568 220.194 220.964 212.293 233.372V233.372Z" fill="#407BFF" stroke="#263238" stroke-width="1.07731" stroke-miterlimit="10"/>
<path d="M72.317 157.718C65.6139 172.204 63.2657 188.325 65.5584 204.12C67.8511 219.916 74.6858 234.704 85.2306 246.686" fill="#407BFF"/>
<path d="M72.317 157.718C65.6139 172.204 63.2657 188.325 65.5584 204.12C67.8511 219.916 74.6858 234.704 85.2306 246.686" stroke="#263238" stroke-width="2.15462" stroke-linecap="round" stroke-linejoin="round"/>
<path d="M82.5575 141.131C80.4201 143.819 78.452 146.638 76.6646 149.57Z" fill="#407BFF"/>
<path d="M82.5575 141.131C80.4201 143.819 78.452 146.638 76.6646 149.57" stroke="#263238" stroke-width="2.15462" stroke-linecap="round" stroke-linejoin="round"/>
<path d="M98.5447 140.367C111.276 128.144 129.046 122.815 146.525 125.116C149.099 125.453 151.827 125.916 154.71 126.544C171.77 130.3 181.664 148.042 183.029 149.07C184.393 150.097 180.982 159.983 180.982 159.983C180.982 159.983 194.623 199.906 192.923 206.053C191.222 212.201 170.06 219.021 170.06 219.021L173.134 231.644L108.303 244.266C108.303 244.266 102.846 219.712 95.671 209.809C88.4958 199.906 83.003 188.756 84.7581 168.176C85.7403 156.145 91.615 147.042 98.5447 140.367Z" fill="white"/>
<path opacity="0.5" d="M171.806 216.002C161.521 216.62 141.896 206.653 134.421 191.075C129.821 181.657 122.277 173.995 112.931 169.249C103.818 166.653 94.2905 165.832 84.8671 166.83C84.8125 167.267 84.758 167.74 84.7216 168.149C82.9664 188.729 88.4684 199.878 95.6345 209.782C102.801 219.685 108.266 244.239 108.266 244.239L173.098 231.617L170.024 218.994C175.485 217.201 180.789 214.962 185.884 212.301C181.573 214.065 176.408 215.72 171.806 216.002Z" fill="black"/>
<path d="M98.5447 140.367C111.276 128.144 129.046 122.815 146.525 125.116C149.099 125.453 151.827 125.916 154.71 126.544C171.77 130.3 181.664 148.042 183.029 149.07C184.393 150.097 180.982 159.983 180.982 159.983C180.982 159.983 194.623 199.906 192.923 206.053C191.222 212.201 170.06 219.021 170.06 219.021L173.134 231.644L108.303 244.266C108.303 244.266 102.846 219.712 95.671 209.809C88.4958 199.906 83.003 188.756 84.7581 168.176C85.7403 156.145 91.615 147.042 98.5447 140.367Z" stroke="#263238" stroke-width="1.07731" stroke-miterlimit="10"/>
<path d="M164.904 144.286C164.904 144.286 165.586 144.968 159.448 144.968C153.309 144.968 142.724 143.95 139.314 147.024C135.903 150.097 130.438 158.964 132.493 158.964C134.548 158.964 137.267 155.89 139.314 155.89C140.924 155.823 142.523 155.594 144.088 155.208C144.088 155.208 135.558 160.328 138.632 160.665C141.705 161.001 155.355 158.964 159.102 156.572C162.849 154.181 165.586 152.48 165.932 150.434C166.277 148.388 167.296 147.024 164.904 144.286Z" fill="#263238" stroke="#263238" stroke-width="1.07731" stroke-miterlimit="10"/>
<path d="M179.182 144.059C178.918 144.596 177.572 146.978 175.144 146.678C173.578 146.513 172.124 145.786 171.052 144.632C171.335 145.863 171.449 147.126 171.388 148.388C171.388 151.116 171.734 153.162 173.434 155.208C175.135 157.254 180.946 159.983 180.946 159.983C180.946 159.983 182.992 153.844 182.992 149.07C182.556 148.742 181.273 146.751 179.182 144.059Z" fill="#263238" stroke="#263238" stroke-width="1.07731" stroke-miterlimit="10"/>
<path d="M170.024 154.19C170.024 154.19 183.665 160.665 184.356 162.72C185.047 164.775 180.946 172.614 180.946 172.614" fill="white"/>
<path d="M170.024 154.19C170.024 154.19 183.665 160.665 184.356 162.72C185.047 164.775 180.946 172.614 180.946 172.614" stroke="#263238" stroke-width="1.07731" stroke-miterlimit="10"/>
<path d="M184.356 162.738C184.356 162.738 163.885 175.361 166.614 177.061C169.342 178.762 176.844 176.043 178.9 174.333C180.955 172.623 184.693 167.149 184.356 162.738Z" fill="#263238" stroke="#263238" stroke-width="1.07731" stroke-miterlimit="10"/>
<path d="M181.546 180.835C181.546 180.835 174.153 182.8 171.752 183.054C169.351 183.309 164.795 186.546 166.841 186.619C168.887 186.692 176.526 183.236 178.573 183.309C180.619 183.382 184.029 183.473 184.247 182.6C184.684 180.926 181.546 180.835 181.546 180.835Z" fill="#263238" stroke="#263238" stroke-width="1.07731" stroke-miterlimit="10"/>
<path d="M170.315 220.204C169.487 220.276 168.733 220.331 168.069 220.358C160.593 220.676 150.79 220.113 141.278 215.375C136.962 213.011 133.115 209.876 129.928 206.126C139.84 200.737 150.442 196.729 161.439 194.213C162.766 193.9 163.914 193.074 164.631 191.915C165.348 190.756 165.576 189.36 165.263 188.033C164.951 186.707 164.124 185.559 162.966 184.841C161.807 184.124 160.41 183.897 159.084 184.209C146.693 187.035 134.773 191.629 123.69 197.85C116.196 185.81 111.968 169.75 119.143 154.672C129.046 133.837 149.926 128.545 157.338 127.299C156.474 127.026 155.592 126.78 154.691 126.58C151.845 125.953 149.117 125.489 146.507 125.152C129.028 122.852 111.231 128.181 98.5265 140.403C91.5968 147.078 85.7221 156.181 84.7035 168.213C82.9484 188.793 88.4503 199.942 95.6164 209.845C102.783 219.749 108.248 244.303 108.248 244.303L173.08 231.68L170.315 220.204Z" fill="#263238"/>
<path d="M188.985 126.135C181.32 121.116 172.365 118.425 163.203 118.386H163.058C151.798 118.383 140.714 121.174 130.799 126.509C120.884 131.844 112.447 139.557 106.246 148.955C100.045 158.353 96.2731 169.143 95.2685 180.357C94.2638 191.572 96.0579 202.86 100.49 213.211C104.922 223.561 111.853 232.65 120.662 239.663C129.472 246.675 139.883 251.392 150.964 253.39C162.045 255.388 173.448 254.605 184.152 251.111C194.856 247.618 204.525 241.522 212.293 233.372C223.305 216.027 227.033 195.041 222.67 174.965C218.306 154.889 206.203 137.343 188.985 126.135V126.135Z" stroke="#263238" stroke-width="1.07731" stroke-miterlimit="10"/>
<path d="M86.6681 206.8C93.3751 206.595 98.5758 198.693 98.2842 189.15C97.9926 179.606 92.3192 172.036 85.6123 172.241C78.9053 172.446 73.7046 180.348 73.9962 189.892C74.2878 199.435 79.9612 207.005 86.6681 206.8Z" fill="#263238"/>
<path d="M231.463 266.156C231.463 266.156 224.452 261.945 223.988 254.943C223.524 247.941 224.452 245.13 224.452 245.13C224.452 245.13 180.064 216.621 87.5406 248.395C87.5406 248.395 76.3276 249.796 77.7281 254.943C79.1286 260.09 81.4658 262.418 81.4658 266.62C81.4658 270.821 72.59 276.414 68.8432 277.369C67.4882 277.705 62.0045 280.515 55.2021 284.18C70.8988 301.225 90.0702 314.702 111.422 323.703C132.547 332.488 156.483 336.944 182.555 336.944C214.685 336.944 245.905 330.142 270.768 322.53L270.222 280.152L231.463 266.156Z" fill="#407BFF"/>
<path d="M97.2076 316.928C86.3675 294.193 72.3899 273.922 59.5036 273.631C57.7667 273.631 54.0472 274.904 49 277.078C62.3608 293.334 78.7282 306.864 97.2076 316.928V316.928Z" fill="#407BFF"/>
<path d="M87.541 248.395C87.541 248.395 76.328 249.796 77.7285 254.943C79.129 260.09 81.4661 262.418 81.4661 266.62C81.4194 267.486 81.1363 268.322 80.6477 269.039C102.883 262.337 169.688 244.73 224.188 256.407C224.088 255.921 224.021 255.429 223.988 254.934C223.515 247.922 224.452 245.121 224.452 245.121C224.452 245.121 180.064 216.621 87.541 248.395Z" fill="#263238" stroke="#263238" stroke-width="1.07731" stroke-linejoin="round"/>
<path d="M77.2007 262.773C75.6182 262.776 74.0756 262.277 72.7949 261.347C71.5142 260.418 70.5616 259.105 70.0743 257.6C69.5869 256.094 69.5899 254.473 70.0829 252.969C70.5758 251.465 71.5333 250.157 72.8174 249.232C85.7673 239.874 114.805 231.953 148.589 228.561C181.946 225.215 211.802 227.115 226.498 233.536C228.147 234.425 229.402 235.902 230.015 237.673C230.627 239.444 230.551 241.381 229.803 243.099C229.055 244.817 227.689 246.192 225.975 246.95C224.261 247.709 222.325 247.796 220.55 247.195C210.474 242.793 184.793 239.92 150.126 243.394C115.041 246.922 90.4326 254.934 81.6022 261.309C80.3286 262.254 78.7865 262.767 77.2007 262.773Z" fill="#407BFF" stroke="#263238" stroke-width="1.07731" stroke-miterlimit="10"/>
<path d="M134.657 241.793C137.385 241.538 140.214 241.356 143.042 241.284" stroke="#263238" stroke-width="2.15462" stroke-linecap="round" stroke-linejoin="round"/>
<path d="M74.918 259.617C91.1988 251.297 108.694 245.607 126.754 242.757" stroke="#263238" stroke-width="2.15462" stroke-linecap="round" stroke-linejoin="round"/>
<path d="M78.0645 271.967C75.4717 274.278 72.4625 276.074 69.1978 277.26C79.1103 284.117 89.0501 299.84 97.2075 316.928C101.826 319.43 106.57 321.691 111.421 323.703C111.712 323.83 112.013 323.94 112.331 324.058C100.163 294.338 84.9123 278.169 78.0645 271.967Z" fill="#263238"/>
<path d="M248.888 272.649C248.878 272.578 248.863 272.508 248.842 272.44L236.538 267.993C242.142 287.822 246.681 307.936 250.134 328.25C251.698 327.868 253.244 327.486 254.781 327.086L247.933 276.305C247.839 275.663 247.875 275.008 248.039 274.38C248.203 273.752 248.492 273.163 248.888 272.649V272.649Z" fill="#263238"/>
<path d="M303.252 295.512C297.368 291.137 281.099 280.197 254.444 270.958C253.649 270.682 252.796 270.615 251.967 270.762C251.138 270.909 250.36 271.265 249.708 271.797C249.055 272.329 248.55 273.02 248.239 273.802C247.928 274.585 247.823 275.434 247.933 276.268L254.781 327.05C267.576 323.732 280.193 319.765 292.585 315.164C296.089 313.872 299.548 312.448 302.961 310.89L305.125 300.468C305.317 299.549 305.243 298.594 304.911 297.716C304.579 296.839 304.004 296.074 303.252 295.512V295.512Z" fill="#407BFF"/>
<path d="M204.354 277.833L213.239 318.956L256.745 321.466L252.025 284.844L204.354 277.833Z" fill="#407BFF" stroke="#263238" stroke-width="1.07731" stroke-linecap="round" stroke-linejoin="round"/>
<path d="M204.354 277.833L198.752 286.245L207.164 327.832L213.239 318.956L204.354 277.833Z" fill="#263238" stroke="#263238" stroke-width="1.07731" stroke-linecap="round" stroke-linejoin="round"/>
<path d="M213.275 318.956L207.182 328.314L246.396 329.123C248.263 328.699 250.103 328.256 251.916 327.795L257.199 321.757L213.275 318.956Z" fill="#263238"/>
<path d="M126.773 308.562C132.965 308.562 137.986 304.099 137.986 298.594C137.986 293.09 132.965 288.627 126.773 288.627C120.58 288.627 115.56 293.09 115.56 298.594C115.56 304.099 120.58 308.562 126.773 308.562Z" fill="#263238"/>
<path d="M154.182 304.824C160.375 304.824 165.395 300.362 165.395 294.857C165.395 289.352 160.375 284.89 154.182 284.89C147.989 284.89 142.969 289.352 142.969 294.857C142.969 300.362 147.989 304.824 154.182 304.824Z" fill="#263238"/>
</svg>
