<svg width="108" height="38" viewBox="0 0 108 38" fill="none" xmlns="http://www.w3.org/2000/svg">
<path d="M55.2248 37.2604C66.4076 37.2604 75.473 29.1432 75.473 19.1302C75.473 9.11717 66.4076 1 55.2248 1C44.042 1 34.9766 9.11717 34.9766 19.1302C34.9766 29.1432 44.042 37.2604 55.2248 37.2604Z" fill="#407BFF" stroke="#407BFF" stroke-width="1.04814" stroke-linecap="round" stroke-linejoin="round"/>
<path d="M67.0001 3.36432C90.2907 4.394 106.872 9.56846 107.061 16.4764C107.279 24.5835 83.7706 31.674 54.439 32.3257C25.1075 32.9773 1.22007 26.9427 1.00172 18.8486C0.797933 11.5236 18.1715 5.01962 43.5 3.36431" stroke="#575757" stroke-width="1.04814" stroke-linecap="round" stroke-linejoin="round"/>
<path d="M67.4094 3.32007C81.7622 4.81897 92.0391 9.15924 92.1556 14.5031C92.3448 21.4502 75.4009 27.4589 54.3084 27.9281C33.2159 28.3973 15.9372 23.1446 15.748 16.1976C15.5733 10.3975 27.3933 5.24908 43.5511 3.43737" stroke="#575757" stroke-width="1.04814" stroke-linecap="round" stroke-linejoin="round"/>
<path d="M106.624 22.1279C106.607 21.5121 106.386 20.9148 105.989 20.4114C105.593 19.908 105.038 19.5212 104.396 19.2999C103.754 19.0786 103.053 19.0327 102.382 19.1681C101.711 19.3035 101.1 19.614 100.626 20.0604C100.151 20.5068 99.8357 21.069 99.7184 21.676C99.6011 22.283 99.6874 22.9075 99.9665 23.4706C100.246 24.0337 100.705 24.51 101.286 24.8394C101.868 25.1688 102.545 25.3365 103.233 25.3212C103.69 25.3128 104.141 25.2233 104.56 25.0579C104.979 24.8925 105.357 24.6545 105.672 24.3576C105.987 24.0607 106.234 23.7108 106.397 23.3281C106.561 22.9454 106.638 22.5375 106.624 22.1279Z" fill="#407BFF"/>
<path d="M19.809 15.6111C19.7914 14.9947 19.5699 14.3969 19.1726 13.8933C18.7753 13.3897 18.2201 13.003 17.5772 12.7822C16.9343 12.5613 16.2326 12.5163 15.5611 12.6528C14.8896 12.7892 14.2784 13.101 13.8049 13.5487C13.3315 13.9964 13.017 14.5598 12.9014 15.1677C12.7858 15.7755 12.8743 16.4004 13.1556 16.9631C13.4369 17.5259 13.8983 18.0013 14.4816 18.3291C15.0648 18.6568 15.7435 18.8223 16.4318 18.8044C16.8881 18.7943 17.3376 18.7036 17.7546 18.5374C18.1716 18.3712 18.5478 18.133 18.8616 17.8362C19.1754 17.5395 19.4207 17.1901 19.5832 16.8083C19.7458 16.4264 19.8225 16.0196 19.809 15.6111Z" fill="#407BFF"/>
</svg>
